<?xml version="1.0" encoding="UTF-8"?>
<svg xmlns="http://www.w3.org/2000/svg" xmlns:xlink="http://www.w3.org/1999/xlink" width="430" height="250" viewBox="0 0 430 250">
<defs>
<g>
<g id="glyph-0-0-ed4a5f4e">
<path d="M 8.71875 -2.578125 C 8.71875 -2.75 8.5625 -2.75 8.4375 -2.75 C 8.21875 -2.75 8.203125 -2.734375 8.09375 -2.34375 C 7.859375 -1.421875 7.53125 -0.203125 6.734375 -0.203125 C 6.25 -0.203125 6.203125 -0.609375 6.203125 -0.96875 C 6.203125 -1.390625 6.34375 -1.890625 6.359375 -1.984375 C 6.4375 -2.359375 6.4375 -2.375 6.4375 -2.609375 C 6.4375 -3.828125 5.1875 -4.3125 4.046875 -4.484375 C 4.46875 -4.734375 4.84375 -5.109375 5.328125 -5.671875 C 6.265625 -6.734375 6.96875 -7.5625 7.859375 -7.5625 C 8.203125 -7.5625 8.359375 -7.34375 8.359375 -7.34375 C 7.59375 -7.21875 7.5 -6.59375 7.5 -6.4375 C 7.5 -6.203125 7.671875 -5.875 8.140625 -5.875 C 8.53125 -5.875 9.03125 -6.1875 9.03125 -6.875 C 9.03125 -7.34375 8.71875 -7.953125 7.90625 -7.953125 C 6.953125 -7.953125 6.171875 -7.203125 5.5625 -6.484375 C 4.53125 -5.296875 4.25 -5 3.625 -4.703125 L 5.453125 -12.046875 C 5.46875 -12.09375 5.515625 -12.28125 5.515625 -12.28125 C 5.515625 -12.4375 5.40625 -12.484375 5.25 -12.484375 C 5.203125 -12.484375 5.015625 -12.46875 4.96875 -12.453125 L 3.1875 -12.3125 C 2.96875 -12.296875 2.765625 -12.28125 2.765625 -11.9375 C 2.765625 -11.734375 2.953125 -11.734375 3.203125 -11.734375 C 4.0625 -11.734375 4.109375 -11.609375 4.109375 -11.4375 C 4.109375 -11.375 4.046875 -11.125 4.046875 -11.125 L 1.390625 -0.5 C 1.375 -0.46875 1.34375 -0.265625 1.34375 -0.265625 C 1.34375 -0.078125 1.515625 0.203125 1.859375 0.203125 C 2.390625 0.203125 2.515625 -0.3125 2.5625 -0.46875 L 3.46875 -4.125 C 4.140625 -4.03125 5.296875 -3.65625 5.296875 -2.609375 C 5.296875 -2.484375 5.296875 -2.40625 5.234375 -2.15625 C 5.171875 -1.859375 5.171875 -1.734375 5.171875 -1.546875 C 5.171875 -0.25 6.015625 0.203125 6.671875 0.203125 C 7.46875 0.203125 7.859375 -0.390625 8.0625 -0.734375 C 8.453125 -1.421875 8.71875 -2.515625 8.71875 -2.578125 Z M 8.71875 -2.578125 "/>
</g>
<g id="glyph-1-0-ed4a5f4e">
<path d="M 9.125 -6.140625 C 9.125 -1.9375 7.65625 0.265625 4.953125 0.265625 C 2.21875 0.265625 0.78125 -1.9375 0.78125 -6.25 C 0.78125 -10.53125 2.203125 -12.765625 4.953125 -12.765625 C 7.71875 -12.765625 9.125 -10.5625 9.125 -6.140625 Z M 7.5 -6.28125 C 7.5 -9.703125 6.65625 -11.359375 4.953125 -11.359375 C 3.234375 -11.359375 2.390625 -9.71875 2.390625 -6.234375 C 2.390625 -2.734375 3.234375 -1.046875 4.90625 -1.046875 C 6.671875 -1.046875 7.5 -2.65625 7.5 -6.28125 Z M 7.5 -6.28125 "/>
</g>
<g id="glyph-1-1-ed4a5f4e">
<path d="M 9.234375 -4.234375 C 9.234375 -1.53125 7.4375 0.265625 4.859375 0.265625 C 2.59375 0.265625 1.15625 -0.734375 0.625 -3.28125 C 0.625 -3.28125 2.21875 -3.28125 2.21875 -3.28125 C 2.59375 -1.84375 3.4375 -1.140625 4.828125 -1.140625 C 6.546875 -1.140625 7.609375 -2.171875 7.609375 -4.015625 C 7.609375 -5.90625 6.53125 -7 4.828125 -7 C 3.828125 -7 3.21875 -6.703125 2.484375 -5.8125 C 2.484375 -5.8125 1.03125 -5.8125 1.03125 -5.8125 C 1.03125 -5.8125 1.984375 -12.484375 1.984375 -12.484375 C 1.984375 -12.484375 8.5625 -12.484375 8.5625 -12.484375 C 8.5625 -12.484375 8.5625 -10.921875 8.5625 -10.921875 C 8.5625 -10.921875 3.265625 -10.921875 3.265625 -10.921875 C 3.265625 -10.921875 2.75 -7.625 2.75 -7.625 C 3.484375 -8.171875 4.21875 -8.40625 5.109375 -8.40625 C 7.5625 -8.40625 9.234375 -6.75 9.234375 -4.234375 Z M 9.234375 -4.234375 "/>
</g>
<g id="glyph-1-2-ed4a5f4e">
<path d="M 6.25 0 C 6.25 0 4.65625 0 4.65625 0 C 4.65625 0 4.65625 -9.09375 4.65625 -9.09375 C 4.65625 -9.09375 1.84375 -9.09375 1.84375 -9.09375 C 1.84375 -9.09375 1.84375 -10.21875 1.84375 -10.21875 C 4.28125 -10.53125 4.640625 -10.796875 5.203125 -12.765625 C 5.203125 -12.765625 6.25 -12.765625 6.25 -12.765625 C 6.25 -12.765625 6.25 0 6.25 0 Z M 6.25 0 "/>
</g>
<g id="glyph-1-3-ed4a5f4e">
<path d="M 9.203125 -9.015625 C 9.203125 -7.453125 8.28125 -6.125 6.5 -5.171875 C 6.5 -5.171875 4.703125 -4.1875 4.703125 -4.1875 C 3.125 -3.28125 2.5625 -2.609375 2.390625 -1.5625 C 2.390625 -1.5625 9.109375 -1.5625 9.109375 -1.5625 C 9.109375 -1.5625 9.109375 0 9.109375 0 C 9.109375 0 0.609375 0 0.609375 0 C 0.75 -2.8125 1.53125 -4.015625 4.1875 -5.53125 C 4.1875 -5.53125 5.84375 -6.46875 5.84375 -6.46875 C 6.984375 -7.109375 7.578125 -7.96875 7.578125 -8.984375 C 7.578125 -10.34375 6.5 -11.375 5.0625 -11.375 C 3.484375 -11.375 2.609375 -10.46875 2.484375 -8.328125 C 2.484375 -8.328125 0.90625 -8.328125 0.90625 -8.328125 C 0.984375 -11.4375 2.5 -12.765625 5.109375 -12.765625 C 7.53125 -12.765625 9.203125 -11.171875 9.203125 -9.015625 Z M 9.203125 -9.015625 "/>
</g>
<g id="glyph-1-4-ed4a5f4e">
<path d="M 11.625 0 C 11.625 0 9.734375 0 9.734375 0 C 9.734375 0 2.953125 -10.640625 2.953125 -10.640625 C 2.953125 -10.640625 2.953125 0 2.953125 0 C 2.953125 0 1.375 0 1.375 0 C 1.375 0 1.375 -13.125 1.375 -13.125 C 1.375 -13.125 3.1875 -13.125 3.1875 -13.125 C 3.1875 -13.125 10.046875 -2.390625 10.046875 -2.390625 C 10.046875 -2.390625 10.046875 -13.125 10.046875 -13.125 C 10.046875 -13.125 11.625 -13.125 11.625 -13.125 C 11.625 -13.125 11.625 0 11.625 0 Z M 11.625 0 "/>
</g>
<g id="glyph-1-5-ed4a5f4e">
<path d="M 8.671875 0 C 8.671875 0 7.328125 0 7.328125 0 C 7.328125 0 7.328125 -1.453125 7.328125 -1.453125 C 6.4375 -0.21875 5.5625 0.265625 4.171875 0.265625 C 2.34375 0.265625 1.171875 -0.734375 1.171875 -2.296875 C 1.171875 -2.296875 1.171875 -9.4375 1.171875 -9.4375 C 1.171875 -9.4375 2.65625 -9.4375 2.65625 -9.4375 C 2.65625 -9.4375 2.65625 -2.890625 2.65625 -2.890625 C 2.65625 -1.765625 3.421875 -1.046875 4.609375 -1.046875 C 6.171875 -1.046875 7.1875 -2.296875 7.1875 -4.234375 C 7.1875 -4.234375 7.1875 -9.4375 7.1875 -9.4375 C 7.1875 -9.4375 8.671875 -9.4375 8.671875 -9.4375 C 8.671875 -9.4375 8.671875 0 8.671875 0 Z M 8.671875 0 "/>
</g>
<g id="glyph-1-6-ed4a5f4e">
<path d="M 2.71875 0 C 2.71875 0 1.21875 0 1.21875 0 C 1.21875 0 1.21875 -13.125 1.21875 -13.125 C 1.21875 -13.125 2.71875 -13.125 2.71875 -13.125 C 2.71875 -13.125 2.71875 0 2.71875 0 Z M 2.71875 0 "/>
</g>
<g id="glyph-1-7-ed4a5f4e">
<path d="M 13.359375 -6.359375 C 13.359375 -2.5 10.875 0.328125 7.015625 0.328125 C 3.234375 0.328125 0.6875 -2.359375 0.6875 -6.46875 C 0.6875 -10.5625 3.234375 -13.453125 7 -13.453125 C 10.859375 -13.453125 13.359375 -10.578125 13.359375 -6.359375 Z M 11.6875 -6.390625 C 11.6875 -9.703125 9.84375 -11.96875 7 -11.96875 C 4.234375 -11.96875 2.359375 -9.703125 2.359375 -6.46875 C 2.359375 -3.21875 4.234375 -1.15625 7.015625 -1.15625 C 9.796875 -1.15625 11.6875 -3.21875 11.6875 -6.390625 Z M 11.6875 -6.390625 "/>
</g>
<g id="glyph-1-8-ed4a5f4e">
<path d="M 9.40625 -4.828125 C 9.40625 -1.765625 7.796875 0.265625 5.3125 0.265625 C 4 0.265625 3.046875 -0.25 2.328125 -1.34375 C 2.328125 -1.34375 2.328125 0 2.328125 0 C 2.328125 0 0.96875 0 0.96875 0 C 0.96875 0 0.96875 -13.125 0.96875 -13.125 C 0.96875 -13.125 2.46875 -13.125 2.46875 -13.125 C 2.46875 -13.125 2.46875 -8.15625 2.46875 -8.15625 C 3.171875 -9.21875 4.09375 -9.703125 5.375 -9.703125 C 7.859375 -9.703125 9.40625 -7.890625 9.40625 -4.828125 Z M 7.84375 -4.734375 C 7.84375 -6.84375 6.765625 -8.296875 5.09375 -8.296875 C 3.515625 -8.375 2.46875 -6.9375 2.46875 -4.71875 C 2.46875 -2.578125 3.515625 -1.140625 5.09375 -1.140625 C 6.734375 -1.140625 7.84375 -2.59375 7.84375 -4.734375 Z M 7.84375 -4.734375 "/>
</g>
<g id="glyph-1-9-ed4a5f4e">
<path d="M 8.265625 -2.640625 C 8.265625 -0.828125 6.75 0.265625 4.375 0.265625 C 1.90625 0.265625 0.6875 -0.703125 0.609375 -2.875 C 0.609375 -2.875 2.203125 -2.875 2.203125 -2.875 C 2.390625 -1.4375 3.15625 -1.109375 4.5 -1.109375 C 5.8125 -1.109375 6.703125 -1.640625 6.703125 -2.515625 C 6.703125 -3.203125 6.28125 -3.515625 5.234375 -3.765625 C 5.234375 -3.765625 3.828125 -4.109375 3.828125 -4.109375 C 1.609375 -4.640625 0.84375 -5.34375 0.84375 -6.828125 C 0.84375 -8.5625 2.265625 -9.703125 4.46875 -9.703125 C 6.640625 -9.703125 7.859375 -8.65625 7.890625 -6.796875 C 7.890625 -6.796875 6.296875 -6.796875 6.296875 -6.796875 C 6.265625 -7.796875 5.609375 -8.3125 4.40625 -8.3125 C 3.1875 -8.3125 2.40625 -7.765625 2.40625 -6.890625 C 2.40625 -6.234375 2.9375 -5.828125 4.15625 -5.546875 C 4.15625 -5.546875 5.59375 -5.203125 5.59375 -5.203125 C 7.46875 -4.75 8.265625 -4.046875 8.265625 -2.640625 Z M 8.265625 -2.640625 "/>
</g>
<g id="glyph-1-10-ed4a5f4e">
<path d="M 9.234375 -4.28125 C 9.234375 -4.28125 2.28125 -4.28125 2.28125 -4.28125 C 2.328125 -2.125 3.484375 -1.109375 5.0625 -1.109375 C 6.265625 -1.109375 7.109375 -1.625 7.53125 -2.859375 C 7.53125 -2.859375 9.03125 -2.859375 9.03125 -2.859375 C 8.65625 -0.953125 7.15625 0.265625 5 0.265625 C 2.359375 0.265625 0.71875 -1.5625 0.71875 -4.65625 C 0.71875 -7.765625 2.40625 -9.703125 5.046875 -9.703125 C 6.796875 -9.703125 8.25 -8.765625 8.859375 -7.21875 C 9.125 -6.515625 9.234375 -5.65625 9.234375 -4.28125 Z M 7.625 -5.609375 C 7.625 -7.09375 6.5 -8.3125 5.015625 -8.3125 C 3.515625 -8.3125 2.453125 -7.1875 2.328125 -5.515625 C 2.328125 -5.515625 7.609375 -5.515625 7.609375 -5.515625 C 7.625 -5.546875 7.625 -5.609375 7.625 -5.609375 Z M 7.625 -5.609375 "/>
</g>
<g id="glyph-1-11-ed4a5f4e">
<path d="M 5.78125 -8.125 C 3.453125 -8.078125 2.75 -7.015625 2.75 -4.890625 C 2.75 -4.890625 2.75 0 2.75 0 C 2.75 0 1.265625 0 1.265625 0 C 1.265625 0 1.265625 -9.4375 1.265625 -9.4375 C 1.265625 -9.4375 2.625 -9.4375 2.625 -9.4375 C 2.625 -9.4375 2.625 -7.71875 2.625 -7.71875 C 3.484375 -9.125 4.234375 -9.703125 5.203125 -9.703125 C 5.40625 -9.703125 5.53125 -9.6875 5.78125 -9.640625 C 5.78125 -9.640625 5.78125 -8.125 5.78125 -8.125 Z M 5.78125 -8.125 "/>
</g>
<g id="glyph-1-12-ed4a5f4e">
<path d="M 8.75 -9.4375 C 8.75 -9.4375 5.125 0 5.125 0 C 5.125 0 3.484375 0 3.484375 0 C 3.484375 0 0.1875 -9.4375 0.1875 -9.4375 C 0.1875 -9.4375 1.875 -9.4375 1.875 -9.4375 C 1.875 -9.4375 4.390625 -1.78125 4.390625 -1.78125 C 4.390625 -1.78125 7.0625 -9.4375 7.0625 -9.4375 C 7.0625 -9.4375 8.75 -9.4375 8.75 -9.4375 Z M 8.75 -9.4375 "/>
</g>
<g id="glyph-1-13-ed4a5f4e">
<path d="M 8.90625 0 C 8.90625 0 7.578125 0 7.578125 0 C 7.578125 0 7.578125 -1.390625 7.578125 -1.390625 C 6.765625 -0.21875 5.875 0.265625 4.578125 0.265625 C 2.03125 0.265625 0.46875 -1.625 0.46875 -4.8125 C 0.46875 -7.8125 2.0625 -9.703125 4.515625 -9.703125 C 5.78125 -9.703125 6.78125 -9.203125 7.421875 -8.25 C 7.421875 -8.25 7.421875 -13.125 7.421875 -13.125 C 7.421875 -13.125 8.90625 -13.125 8.90625 -13.125 C 8.90625 -13.125 8.90625 0 8.90625 0 Z M 7.421875 -4.6875 C 7.421875 -6.859375 6.390625 -8.296875 4.765625 -8.296875 C 3.125 -8.296875 2.03125 -6.90625 2.03125 -4.71875 C 2.03125 -2.515625 3.125 -1.140625 4.78125 -1.140625 C 6.375 -1.140625 7.421875 -2.5 7.421875 -4.6875 Z M 7.421875 -4.6875 "/>
</g>
<g id="glyph-2-0-ed4a5f4e">
<path d="M 4.140625 -2.71875 L -13.140625 -2.71875 C -13.34375 -2.71875 -13.5 -2.5625 -13.5 -2.359375 C -13.5 -2.15625 -13.34375 -2 -13.140625 -2 L 4.140625 -2 C 4.34375 -2 4.5 -2.15625 4.5 -2.359375 C 4.5 -2.5625 4.34375 -2.71875 4.140625 -2.71875 Z M 4.140625 -5.171875 L -13.140625 -5.171875 C -13.34375 -5.171875 -13.5 -5 -13.5 -4.8125 C -13.5 -4.609375 -13.34375 -4.453125 -13.140625 -4.453125 L 4.140625 -4.453125 C 4.34375 -4.453125 4.5 -4.609375 4.5 -4.8125 C 4.5 -5 4.34375 -5.171875 4.140625 -5.171875 Z M 4.140625 -5.171875 "/>
</g>
<g id="glyph-3-0-ed4a5f4e">
<path d="M -12.3125 -15.65625 L -12.546875 -15.28125 L -12.09375 -14.8125 C -11.71875 -14.34375 -11.4375 -13.84375 -11.4375 -13.265625 C -11.4375 -12.359375 -11.65625 -11.5625 -11.890625 -10.75 C -12.21875 -9.71875 -12.546875 -8.5 -12.546875 -7.5 C -12.546875 -6.171875 -12.109375 -4.78125 -11.265625 -3.65625 C -10.703125 -2.859375 -9.953125 -2.296875 -9.140625 -2.109375 C -8.6875 -2 -8.21875 -1.96875 -7.90625 -2.25 C -7.734375 -2.40625 -7.65625 -2.640625 -7.65625 -2.921875 C -7.65625 -3.203125 -7.78125 -3.515625 -7.953125 -3.78125 C -8.15625 -4.03125 -8.421875 -4.234375 -8.6875 -4.296875 C -9.046875 -4.390625 -9.34375 -4.1875 -9.640625 -3.953125 C -9.828125 -3.828125 -10.046875 -3.703125 -10.296875 -3.765625 C -10.578125 -3.828125 -10.859375 -4.046875 -11.0625 -4.34375 C -11.296875 -4.65625 -11.390625 -5.0625 -11.390625 -5.4375 C -11.390625 -6.484375 -11.046875 -7.390625 -10.65625 -8.21875 L -10.5625 -8.4375 L -4.828125 -7 C -3.765625 -6.734375 -2.9375 -6.375 -1.921875 -5.703125 C -1.6875 -5.5625 -1.21875 -5.09375 -1.0625 -4.859375 C -0.796875 -4.5 -0.671875 -4.09375 -0.671875 -3.671875 C -0.671875 -3.4375 -0.703125 -3.21875 -0.84375 -3.078125 C -0.9375 -3 -1.203125 -2.96875 -1.40625 -2.96875 C -1.65625 -2.953125 -1.890625 -2.875 -2.015625 -2.8125 C -2.21875 -2.6875 -2.296875 -2.390625 -2.296875 -2.171875 C -2.296875 -1.875 -2.21875 -1.53125 -2.015625 -1.234375 C -1.859375 -1.03125 -1.609375 -0.828125 -1.34375 -0.78125 C -0.984375 -0.6875 -0.59375 -0.6875 -0.328125 -0.9375 C 0.046875 -1.265625 0.203125 -1.75 0.203125 -2.34375 C 0.203125 -4.171875 -0.78125 -5.703125 -0.984375 -6.015625 C -2.203125 -7.671875 -3.859375 -8.75 -5.546875 -9.15625 L -10.140625 -10.3125 C -9.984375 -10.796875 -9.734375 -11.890625 -9.734375 -12.125 C -9.734375 -12.34375 -9.796875 -12.578125 -9.875 -12.796875 C -9.984375 -13.078125 -10.234375 -13.5 -10.4375 -13.765625 C -10.859375 -14.359375 -11.4375 -14.90625 -11.75 -15.171875 Z M -12.3125 -15.65625 "/>
</g>
<g id="glyph-4-0-ed4a5f4e">
<path d="M -10.921875 1.46875 C -11.8125 2.484375 -12.5625 3.578125 -13.21875 4.75 C -12.5625 5.921875 -11.8125 7.015625 -10.921875 8.03125 L -10.5625 7.8125 C -11.015625 6.765625 -11.53125 5.734375 -12.09375 4.75 C -11.53125 3.765625 -11.015625 2.734375 -10.5625 1.6875 Z M -10.921875 1.46875 "/>
</g>
<g id="glyph-5-0-ed4a5f4e">
<path d="M -1.546875 -5.21875 C -1.65625 -5.21875 -1.65625 -5.140625 -1.65625 -5.0625 C -1.65625 -4.9375 -1.640625 -4.921875 -1.40625 -4.859375 C -0.859375 -4.71875 -0.125 -4.515625 -0.125 -4.03125 C -0.125 -3.75 -0.359375 -3.71875 -0.578125 -3.71875 C -0.828125 -3.71875 -1.140625 -3.796875 -1.1875 -3.8125 C -1.421875 -3.859375 -1.421875 -3.859375 -1.5625 -3.859375 C -2.296875 -3.859375 -2.59375 -3.109375 -2.6875 -2.421875 C -2.84375 -2.671875 -3.0625 -2.90625 -3.40625 -3.203125 C -4.03125 -3.75 -4.53125 -4.171875 -4.53125 -4.71875 C -4.53125 -4.921875 -4.40625 -5.015625 -4.40625 -5.015625 C -4.328125 -4.5625 -3.953125 -4.5 -3.859375 -4.5 C -3.71875 -4.5 -3.515625 -4.59375 -3.515625 -4.875 C -3.515625 -5.125 -3.71875 -5.421875 -4.125 -5.421875 C -4.40625 -5.421875 -4.765625 -5.21875 -4.765625 -4.734375 C -4.765625 -4.171875 -4.3125 -3.703125 -3.890625 -3.34375 C -3.171875 -2.71875 -3 -2.546875 -2.8125 -2.171875 L -7.21875 -3.265625 C -7.25 -3.28125 -7.359375 -3.296875 -7.359375 -3.296875 C -7.453125 -3.296875 -7.5 -3.234375 -7.5 -3.15625 C -7.5 -3.125 -7.484375 -3.015625 -7.46875 -2.984375 L -7.390625 -1.90625 C -7.375 -1.78125 -7.359375 -1.65625 -7.15625 -1.65625 C -7.046875 -1.65625 -7.046875 -1.765625 -7.046875 -1.921875 C -7.046875 -2.4375 -6.96875 -2.46875 -6.859375 -2.46875 C -6.828125 -2.46875 -6.671875 -2.421875 -6.671875 -2.421875 L -0.296875 -0.828125 C -0.28125 -0.828125 -0.15625 -0.8125 -0.15625 -0.8125 C -0.046875 -0.8125 0.125 -0.90625 0.125 -1.109375 C 0.125 -1.4375 -0.1875 -1.515625 -0.28125 -1.53125 L -2.46875 -2.078125 C -2.421875 -2.484375 -2.1875 -3.171875 -1.5625 -3.171875 C -1.484375 -3.171875 -1.453125 -3.171875 -1.296875 -3.140625 C -1.109375 -3.09375 -1.03125 -3.09375 -0.921875 -3.09375 C -0.15625 -3.09375 0.125 -3.609375 0.125 -4 C 0.125 -4.484375 -0.234375 -4.71875 -0.4375 -4.84375 C -0.859375 -5.078125 -1.515625 -5.21875 -1.546875 -5.21875 Z M -1.546875 -5.21875 "/>
</g>
<g id="glyph-6-0-ed4a5f4e">
<path d="M -4.5 -13 C -4.703125 -13 -4.859375 -12.828125 -4.859375 -12.640625 L -4.859375 -1.375 C -4.859375 -1.171875 -4.703125 -1.015625 -4.5 -1.015625 C -4.296875 -1.015625 -4.140625 -1.171875 -4.140625 -1.375 L -4.140625 -12.640625 C -4.140625 -12.828125 -4.296875 -13 -4.5 -13 Z M -4.5 -13 "/>
</g>
<g id="glyph-7-0-ed4a5f4e">
<path d="M -12.3125 -15.65625 L -12.546875 -15.28125 L -12.09375 -14.8125 C -11.71875 -14.34375 -11.4375 -13.84375 -11.4375 -13.265625 C -11.4375 -12.359375 -11.65625 -11.5625 -11.890625 -10.75 C -12.21875 -9.71875 -12.546875 -8.5 -12.546875 -7.5 C -12.546875 -6.171875 -12.109375 -4.78125 -11.265625 -3.65625 C -10.703125 -2.859375 -9.953125 -2.296875 -9.140625 -2.109375 C -8.6875 -2 -8.21875 -1.96875 -7.90625 -2.25 C -7.734375 -2.40625 -7.65625 -2.640625 -7.65625 -2.921875 C -7.65625 -3.203125 -7.78125 -3.515625 -7.953125 -3.78125 C -8.15625 -4.03125 -8.421875 -4.234375 -8.6875 -4.296875 C -9.046875 -4.390625 -9.34375 -4.1875 -9.640625 -3.953125 C -9.828125 -3.828125 -10.046875 -3.703125 -10.296875 -3.765625 C -10.578125 -3.828125 -10.859375 -4.046875 -11.0625 -4.34375 C -11.296875 -4.65625 -11.390625 -5.0625 -11.390625 -5.4375 C -11.390625 -6.484375 -11.046875 -7.390625 -10.65625 -8.21875 L -10.5625 -8.4375 L -4.828125 -7 C -3.765625 -6.734375 -2.9375 -6.375 -1.921875 -5.703125 C -1.6875 -5.5625 -1.21875 -5.09375 -1.0625 -4.859375 C -0.796875 -4.5 -0.671875 -4.09375 -0.671875 -3.671875 C -0.671875 -3.4375 -0.703125 -3.21875 -0.84375 -3.078125 C -0.9375 -3 -1.203125 -2.96875 -1.40625 -2.96875 C -1.65625 -2.953125 -1.890625 -2.875 -2.015625 -2.8125 C -2.21875 -2.6875 -2.296875 -2.390625 -2.296875 -2.171875 C -2.296875 -1.875 -2.21875 -1.53125 -2.015625 -1.234375 C -1.859375 -1.03125 -1.609375 -0.828125 -1.34375 -0.78125 C -0.984375 -0.6875 -0.59375 -0.6875 -0.328125 -0.9375 C 0.046875 -1.265625 0.203125 -1.75 0.203125 -2.34375 C 0.203125 -4.171875 -0.78125 -5.703125 -0.984375 -6.015625 C -2.203125 -7.671875 -3.859375 -8.75 -5.546875 -9.15625 L -10.140625 -10.3125 C -9.984375 -10.796875 -9.734375 -11.890625 -9.734375 -12.125 C -9.734375 -12.34375 -9.796875 -12.578125 -9.875 -12.796875 C -9.984375 -13.078125 -10.234375 -13.5 -10.4375 -13.765625 C -10.859375 -14.359375 -11.4375 -14.90625 -11.75 -15.171875 Z M -12.3125 -15.65625 "/>
</g>
<g id="glyph-8-0-ed4a5f4e">
<path d="M -10.921875 1.46875 C -11.8125 2.484375 -12.5625 3.578125 -13.21875 4.75 C -12.5625 5.921875 -11.8125 7.015625 -10.921875 8.03125 L -10.5625 7.8125 C -11.015625 6.765625 -11.53125 5.734375 -12.09375 4.75 C -11.53125 3.765625 -11.015625 2.734375 -10.5625 1.6875 Z M -10.921875 1.46875 "/>
</g>
<g id="glyph-9-0-ed4a5f4e">
<path d="M 2.5625 -3.578125 C 2.53125 -3.578125 2.5 -3.5625 2.484375 -3.546875 C 1.640625 -2.421875 -0.515625 -1.671875 -2.25 -1.671875 L -3.15625 -1.671875 C -4.875 -1.671875 -7.046875 -2.421875 -7.875 -3.546875 C -7.90625 -3.5625 -7.9375 -3.578125 -7.96875 -3.578125 C -8.015625 -3.578125 -8.078125 -3.53125 -8.078125 -3.484375 C -8.078125 -3.453125 -8.0625 -3.4375 -8.046875 -3.40625 C -7.15625 -2.21875 -5 -1.09375 -3.15625 -1.09375 L -2.25 -1.09375 C -0.40625 -1.09375 1.765625 -2.21875 2.65625 -3.40625 C 2.671875 -3.4375 2.671875 -3.453125 2.671875 -3.484375 C 2.671875 -3.53125 2.625 -3.578125 2.5625 -3.578125 Z M 2.5625 -3.578125 "/>
</g>
<g id="glyph-10-0-ed4a5f4e">
<path d="M -2.25 -3.109375 L -3.15625 -3.109375 C -5 -3.109375 -7.15625 -1.96875 -8.046875 -0.78125 C -8.0625 -0.765625 -8.078125 -0.75 -8.078125 -0.71875 C -8.078125 -0.671875 -8.015625 -0.609375 -7.96875 -0.609375 C -7.9375 -0.609375 -7.90625 -0.640625 -7.875 -0.65625 C -7.046875 -1.78125 -4.875 -2.53125 -3.15625 -2.53125 L -2.25 -2.53125 C -0.515625 -2.53125 1.640625 -1.78125 2.484375 -0.65625 C 2.5 -0.640625 2.53125 -0.609375 2.5625 -0.609375 C 2.625 -0.609375 2.671875 -0.671875 2.671875 -0.71875 C 2.671875 -0.75 2.671875 -0.765625 2.65625 -0.78125 C 1.765625 -1.96875 -0.40625 -3.109375 -2.25 -3.109375 Z M -2.25 -3.109375 "/>
</g>
<g id="glyph-11-0-ed4a5f4e">
<path d="M 4.140625 -2.71875 L -13.140625 -2.71875 C -13.34375 -2.71875 -13.5 -2.5625 -13.5 -2.359375 C -13.5 -2.15625 -13.34375 -2 -13.140625 -2 L 4.140625 -2 C 4.34375 -2 4.5 -2.15625 4.5 -2.359375 C 4.5 -2.5625 4.34375 -2.71875 4.140625 -2.71875 Z M 4.140625 -5.171875 L -13.140625 -5.171875 C -13.34375 -5.171875 -13.5 -5 -13.5 -4.8125 C -13.5 -4.609375 -13.34375 -4.453125 -13.140625 -4.453125 L 4.140625 -4.453125 C 4.34375 -4.453125 4.5 -4.609375 4.5 -4.8125 C 4.5 -5 4.34375 -5.171875 4.140625 -5.171875 Z M 4.140625 -5.171875 "/>
</g>
<g id="glyph-12-0-ed4a5f4e">
<path d="M -5.15625 -7.640625 L -7.0625 -7.875 C -7.34375 -7.90625 -7.34375 -7.84375 -7.34375 -7.625 L -7.34375 -2.703125 C -7.34375 -2.53125 -7.34375 -2.421875 -7.140625 -2.421875 C -7 -2.421875 -7 -2.5 -7 -2.703125 C -7 -3.34375 -6.921875 -3.34375 -6.828125 -3.34375 C -6.828125 -3.34375 -6.734375 -3.34375 -6.578125 -3.296875 L -0.78125 -1.84375 C -0.421875 -1.765625 -0.328125 -1.6875 -0.328125 -0.953125 C -0.328125 -0.78125 -0.328125 -0.671875 -0.125 -0.671875 C 0 -0.671875 0 -0.78125 0 -0.828125 C 0 -1.25 -0.03125 -1.703125 -0.03125 -2.140625 C -0.03125 -2.640625 0 -3.140625 0 -3.625 C 0 -3.71875 0 -3.859375 -0.203125 -3.859375 C -0.328125 -3.859375 -0.328125 -3.75 -0.328125 -3.578125 L -0.328125 -3.484375 C -0.328125 -2.6875 -0.421875 -2.6875 -0.5625 -2.6875 C -0.609375 -2.6875 -0.625 -2.6875 -0.78125 -2.734375 L -3.515625 -3.40625 L -3.515625 -4.3125 C -3.515625 -5.015625 -3.34375 -5.109375 -3.0625 -5.109375 C -2.875 -5.109375 -2.703125 -5.0625 -2.53125 -5.015625 C -2.453125 -5 -2.40625 -4.984375 -2.375 -4.984375 C -2.25 -4.984375 -2.25 -5.109375 -2.25 -5.15625 C -2.25 -5.265625 -2.25 -5.296875 -2.46875 -5.359375 L -4.84375 -5.953125 C -4.875 -5.953125 -4.9375 -5.96875 -4.984375 -5.96875 C -5.109375 -5.96875 -5.109375 -5.84375 -5.109375 -5.8125 C -5.109375 -5.671875 -5.078125 -5.65625 -4.875 -5.609375 C -4.109375 -5.40625 -3.84375 -5.234375 -3.84375 -4.34375 L -3.84375 -3.5 L -6.640625 -4.1875 C -7 -4.28125 -7 -4.34375 -7 -4.703125 L -7 -5.96875 C -7 -7.125 -6.671875 -7.359375 -5.921875 -7.359375 C -5.671875 -7.359375 -5.46875 -7.328125 -5.21875 -7.296875 L -5.046875 -7.28125 C -4.90625 -7.28125 -4.90625 -7.40625 -4.90625 -7.453125 C -4.90625 -7.59375 -4.953125 -7.609375 -5.15625 -7.640625 Z M -5.15625 -7.640625 "/>
</g>
<g id="glyph-13-0-ed4a5f4e">
<path d="M 3.4375 0 C 3.4375 0 1.5625 0 1.5625 0 C 1.5625 0 1.5625 -1.875 1.5625 -1.875 C 1.5625 -1.875 3.4375 -1.875 3.4375 -1.875 C 3.4375 -1.875 3.4375 0 3.4375 0 Z M 3.4375 0 "/>
</g>
<g id="glyph-14-0-ed4a5f4e">
<path d="M 6.25 0 C 6.25 0 4.65625 0 4.65625 0 C 4.65625 0 4.65625 -9.09375 4.65625 -9.09375 C 4.65625 -9.09375 1.84375 -9.09375 1.84375 -9.09375 C 1.84375 -9.09375 1.84375 -10.21875 1.84375 -10.21875 C 4.28125 -10.53125 4.640625 -10.796875 5.203125 -12.765625 C 5.203125 -12.765625 6.25 -12.765625 6.25 -12.765625 C 6.25 -12.765625 6.25 0 6.25 0 Z M 6.25 0 "/>
</g>
<g id="glyph-14-1-ed4a5f4e">
<path d="M 9.125 -6.140625 C 9.125 -1.9375 7.65625 0.265625 4.953125 0.265625 C 2.21875 0.265625 0.78125 -1.9375 0.78125 -6.25 C 0.78125 -10.53125 2.203125 -12.765625 4.953125 -12.765625 C 7.71875 -12.765625 9.125 -10.5625 9.125 -6.140625 Z M 7.5 -6.28125 C 7.5 -9.703125 6.65625 -11.359375 4.953125 -11.359375 C 3.234375 -11.359375 2.390625 -9.71875 2.390625 -6.234375 C 2.390625 -2.734375 3.234375 -1.046875 4.90625 -1.046875 C 6.671875 -1.046875 7.5 -2.65625 7.5 -6.28125 Z M 7.5 -6.28125 "/>
</g>
<g id="glyph-15-0-ed4a5f4e">
<path d="M 3.4375 0 C 3.4375 0 1.5625 0 1.5625 0 C 1.5625 0 1.5625 -1.875 1.5625 -1.875 C 1.5625 -1.875 3.4375 -1.875 3.4375 -1.875 C 3.4375 -1.875 3.4375 0 3.4375 0 Z M 3.4375 0 "/>
</g>
</g>
<clipPath id="clip-0-ed4a5f4e">
<path clip-rule="nonzero" d="M 88 55 L 281 55 L 281 185 L 88 185 Z M 88 55 "/>
</clipPath>
<clipPath id="clip-1-ed4a5f4e">
<path clip-rule="nonzero" d="M 88 53 L 281 53 L 281 185 L 88 185 Z M 88 53 "/>
</clipPath>
<clipPath id="clip-2-ed4a5f4e">
<path clip-rule="nonzero" d="M 88 51 L 281 51 L 281 185 L 88 185 Z M 88 51 "/>
</clipPath>
<clipPath id="clip-3-ed4a5f4e">
<path clip-rule="nonzero" d="M 88 55 L 281 55 L 281 185 L 88 185 Z M 88 55 "/>
</clipPath>
<clipPath id="clip-4-ed4a5f4e">
<path clip-rule="nonzero" d="M 88 44 L 281 44 L 281 185 L 88 185 Z M 88 44 "/>
</clipPath>
<clipPath id="clip-5-ed4a5f4e">
<path clip-rule="nonzero" d="M 88 50 L 281 50 L 281 185 L 88 185 Z M 88 50 "/>
</clipPath>
<clipPath id="clip-6-ed4a5f4e">
<path clip-rule="nonzero" d="M 88 62 L 281 62 L 281 185 L 88 185 Z M 88 62 "/>
</clipPath>
<clipPath id="clip-7-ed4a5f4e">
<path clip-rule="nonzero" d="M 88 59 L 281 59 L 281 185 L 88 185 Z M 88 59 "/>
</clipPath>
<clipPath id="clip-8-ed4a5f4e">
<path clip-rule="nonzero" d="M 88 72 L 281 72 L 281 185 L 88 185 Z M 88 72 "/>
</clipPath>
<clipPath id="clip-9-ed4a5f4e">
<path clip-rule="nonzero" d="M 88 57 L 281 57 L 281 185 L 88 185 Z M 88 57 "/>
</clipPath>
<clipPath id="clip-10-ed4a5f4e">
<path clip-rule="nonzero" d="M 88 63 L 281 63 L 281 185 L 88 185 Z M 88 63 "/>
</clipPath>
<clipPath id="clip-11-ed4a5f4e">
<path clip-rule="nonzero" d="M 88 58 L 281 58 L 281 185 L 88 185 Z M 88 58 "/>
</clipPath>
<clipPath id="clip-12-ed4a5f4e">
<path clip-rule="nonzero" d="M 88 63 L 281 63 L 281 185 L 88 185 Z M 88 63 "/>
</clipPath>
<clipPath id="clip-13-ed4a5f4e">
<path clip-rule="nonzero" d="M 88 51 L 281 51 L 281 185 L 88 185 Z M 88 51 "/>
</clipPath>
<clipPath id="clip-14-ed4a5f4e">
<path clip-rule="nonzero" d="M 88 59 L 281 59 L 281 185 L 88 185 Z M 88 59 "/>
</clipPath>
<clipPath id="clip-15-ed4a5f4e">
<path clip-rule="nonzero" d="M 88 40 L 281 40 L 281 185 L 88 185 Z M 88 40 "/>
</clipPath>
<clipPath id="clip-16-ed4a5f4e">
<path clip-rule="nonzero" d="M 88 45 L 281 45 L 281 185 L 88 185 Z M 88 45 "/>
</clipPath>
<clipPath id="clip-17-ed4a5f4e">
<path clip-rule="nonzero" d="M 88 59 L 281 59 L 281 185 L 88 185 Z M 88 59 "/>
</clipPath>
<clipPath id="clip-18-ed4a5f4e">
<path clip-rule="nonzero" d="M 88 44 L 281 44 L 281 185 L 88 185 Z M 88 44 "/>
</clipPath>
<clipPath id="clip-19-ed4a5f4e">
<path clip-rule="nonzero" d="M 88 63 L 281 63 L 281 185 L 88 185 Z M 88 63 "/>
</clipPath>
<clipPath id="clip-20-ed4a5f4e">
<path clip-rule="nonzero" d="M 88 52 L 281 52 L 281 185 L 88 185 Z M 88 52 "/>
</clipPath>
<clipPath id="clip-21-ed4a5f4e">
<path clip-rule="nonzero" d="M 88 49 L 281 49 L 281 185 L 88 185 Z M 88 49 "/>
</clipPath>
<clipPath id="clip-22-ed4a5f4e">
<path clip-rule="nonzero" d="M 88 74 L 281 74 L 281 185 L 88 185 Z M 88 74 "/>
</clipPath>
<clipPath id="clip-23-ed4a5f4e">
<path clip-rule="nonzero" d="M 88 70 L 281 70 L 281 185 L 88 185 Z M 88 70 "/>
</clipPath>
<clipPath id="clip-24-ed4a5f4e">
<path clip-rule="nonzero" d="M 88 56 L 281 56 L 281 185 L 88 185 Z M 88 56 "/>
</clipPath>
<clipPath id="clip-25-ed4a5f4e">
<path clip-rule="nonzero" d="M 88 67 L 281 67 L 281 185 L 88 185 Z M 88 67 "/>
</clipPath>
<clipPath id="clip-26-ed4a5f4e">
<path clip-rule="nonzero" d="M 88 60 L 281 60 L 281 185 L 88 185 Z M 88 60 "/>
</clipPath>
<clipPath id="clip-27-ed4a5f4e">
<path clip-rule="nonzero" d="M 88 64 L 281 64 L 281 185 L 88 185 Z M 88 64 "/>
</clipPath>
<clipPath id="clip-28-ed4a5f4e">
<path clip-rule="nonzero" d="M 88 37 L 281 37 L 281 185 L 88 185 Z M 88 37 "/>
</clipPath>
<clipPath id="clip-29-ed4a5f4e">
<path clip-rule="nonzero" d="M 88 38 L 281 38 L 281 185 L 88 185 Z M 88 38 "/>
</clipPath>
<clipPath id="clip-30-ed4a5f4e">
<path clip-rule="nonzero" d="M 88 40 L 281 40 L 281 185 L 88 185 Z M 88 40 "/>
</clipPath>
<clipPath id="clip-31-ed4a5f4e">
<path clip-rule="nonzero" d="M 88 38 L 281 38 L 281 185 L 88 185 Z M 88 38 "/>
</clipPath>
<clipPath id="clip-32-ed4a5f4e">
<path clip-rule="nonzero" d="M 88 32 L 281 32 L 281 185 L 88 185 Z M 88 32 "/>
</clipPath>
<clipPath id="clip-33-ed4a5f4e">
<path clip-rule="nonzero" d="M 88 34 L 281 34 L 281 185 L 88 185 Z M 88 34 "/>
</clipPath>
<clipPath id="clip-34-ed4a5f4e">
<path clip-rule="nonzero" d="M 88 50 L 281 50 L 281 185 L 88 185 Z M 88 50 "/>
</clipPath>
<clipPath id="clip-35-ed4a5f4e">
<path clip-rule="nonzero" d="M 88 44 L 281 44 L 281 185 L 88 185 Z M 88 44 "/>
</clipPath>
<clipPath id="clip-36-ed4a5f4e">
<path clip-rule="nonzero" d="M 88 48 L 281 48 L 281 185 L 88 185 Z M 88 48 "/>
</clipPath>
<clipPath id="clip-37-ed4a5f4e">
<path clip-rule="nonzero" d="M 88 38 L 281 38 L 281 185 L 88 185 Z M 88 38 "/>
</clipPath>
<clipPath id="clip-38-ed4a5f4e">
<path clip-rule="nonzero" d="M 88 39 L 281 39 L 281 185 L 88 185 Z M 88 39 "/>
</clipPath>
<clipPath id="clip-39-ed4a5f4e">
<path clip-rule="nonzero" d="M 88 40 L 281 40 L 281 185 L 88 185 Z M 88 40 "/>
</clipPath>
<clipPath id="clip-40-ed4a5f4e">
<path clip-rule="nonzero" d="M 88 46 L 281 46 L 281 185 L 88 185 Z M 88 46 "/>
</clipPath>
<clipPath id="clip-41-ed4a5f4e">
<path clip-rule="nonzero" d="M 88 40 L 281 40 L 281 185 L 88 185 Z M 88 40 "/>
</clipPath>
<clipPath id="clip-42-ed4a5f4e">
<path clip-rule="nonzero" d="M 88 53 L 281 53 L 281 185 L 88 185 Z M 88 53 "/>
</clipPath>
<clipPath id="clip-43-ed4a5f4e">
<path clip-rule="nonzero" d="M 88 42 L 281 42 L 281 185 L 88 185 Z M 88 42 "/>
</clipPath>
<clipPath id="clip-44-ed4a5f4e">
<path clip-rule="nonzero" d="M 88 35 L 281 35 L 281 185 L 88 185 Z M 88 35 "/>
</clipPath>
<clipPath id="clip-45-ed4a5f4e">
<path clip-rule="nonzero" d="M 88 48 L 281 48 L 281 185 L 88 185 Z M 88 48 "/>
</clipPath>
<clipPath id="clip-46-ed4a5f4e">
<path clip-rule="nonzero" d="M 88 53 L 281 53 L 281 185 L 88 185 Z M 88 53 "/>
</clipPath>
<clipPath id="clip-47-ed4a5f4e">
<path clip-rule="nonzero" d="M 88 48 L 281 48 L 281 185 L 88 185 Z M 88 48 "/>
</clipPath>
<clipPath id="clip-48-ed4a5f4e">
<path clip-rule="nonzero" d="M 88 46 L 281 46 L 281 185 L 88 185 Z M 88 46 "/>
</clipPath>
<clipPath id="clip-49-ed4a5f4e">
<path clip-rule="nonzero" d="M 88 37 L 281 37 L 281 185 L 88 185 Z M 88 37 "/>
</clipPath>
<clipPath id="clip-50-ed4a5f4e">
<path clip-rule="nonzero" d="M 88 40 L 281 40 L 281 185 L 88 185 Z M 88 40 "/>
</clipPath>
<clipPath id="clip-51-ed4a5f4e">
<path clip-rule="nonzero" d="M 88 41 L 281 41 L 281 185 L 88 185 Z M 88 41 "/>
</clipPath>
<clipPath id="clip-52-ed4a5f4e">
<path clip-rule="nonzero" d="M 88 28 L 281 28 L 281 185 L 88 185 Z M 88 28 "/>
</clipPath>
<clipPath id="clip-53-ed4a5f4e">
<path clip-rule="nonzero" d="M 88 42 L 281 42 L 281 185 L 88 185 Z M 88 42 "/>
</clipPath>
<clipPath id="clip-54-ed4a5f4e">
<path clip-rule="nonzero" d="M 88 35 L 281 35 L 281 185 L 88 185 Z M 88 35 "/>
</clipPath>
<clipPath id="clip-55-ed4a5f4e">
<path clip-rule="nonzero" d="M 88 39 L 281 39 L 281 185 L 88 185 Z M 88 39 "/>
</clipPath>
<clipPath id="clip-56-ed4a5f4e">
<path clip-rule="nonzero" d="M 88 38 L 281 38 L 281 185 L 88 185 Z M 88 38 "/>
</clipPath>
<clipPath id="clip-57-ed4a5f4e">
<path clip-rule="nonzero" d="M 88 60 L 281 60 L 281 185 L 88 185 Z M 88 60 "/>
</clipPath>
<clipPath id="clip-58-ed4a5f4e">
<path clip-rule="nonzero" d="M 88 62 L 281 62 L 281 185 L 88 185 Z M 88 62 "/>
</clipPath>
<clipPath id="clip-59-ed4a5f4e">
<path clip-rule="nonzero" d="M 88 55 L 281 55 L 281 185 L 88 185 Z M 88 55 "/>
</clipPath>
<clipPath id="clip-60-ed4a5f4e">
<path clip-rule="nonzero" d="M 88 56 L 281 56 L 281 185 L 88 185 Z M 88 56 "/>
</clipPath>
<clipPath id="clip-61-ed4a5f4e">
<path clip-rule="nonzero" d="M 88 52 L 281 52 L 281 185 L 88 185 Z M 88 52 "/>
</clipPath>
<clipPath id="clip-62-ed4a5f4e">
<path clip-rule="nonzero" d="M 88 18 L 281 18 L 281 185 L 88 185 Z M 88 18 "/>
</clipPath>
<clipPath id="clip-63-ed4a5f4e">
<path clip-rule="nonzero" d="M 88 21 L 281 21 L 281 185 L 88 185 Z M 88 21 "/>
</clipPath>
<clipPath id="clip-64-ed4a5f4e">
<path clip-rule="nonzero" d="M 88 18 L 281 18 L 281 185 L 88 185 Z M 88 18 "/>
</clipPath>
<clipPath id="clip-65-ed4a5f4e">
<path clip-rule="nonzero" d="M 88 21 L 281 21 L 281 185 L 88 185 Z M 88 21 "/>
</clipPath>
<clipPath id="clip-66-ed4a5f4e">
<path clip-rule="nonzero" d="M 88 16 L 281 16 L 281 185 L 88 185 Z M 88 16 "/>
</clipPath>
<clipPath id="clip-67-ed4a5f4e">
<path clip-rule="nonzero" d="M 90 49 L 281 49 L 281 185 L 90 185 Z M 90 49 "/>
</clipPath>
<clipPath id="clip-68-ed4a5f4e">
<path clip-rule="nonzero" d="M 90 39 L 281 39 L 281 185 L 90 185 Z M 90 39 "/>
</clipPath>
<clipPath id="clip-69-ed4a5f4e">
<path clip-rule="nonzero" d="M 82 51 L 281 51 L 281 185 L 82 185 Z M 82 51 "/>
</clipPath>
<clipPath id="clip-70-ed4a5f4e">
<path clip-rule="nonzero" d="M 82 39 L 281 39 L 281 185 L 82 185 Z M 82 39 "/>
</clipPath>
</defs>
<rect x="-43" y="-25" width="516" height="300" fill="rgb(100%, 100%, 100%)" fill-opacity="1"/>
<path fill-rule="nonzero" fill="rgb(100%, 100%, 100%)" fill-opacity="1" d="M 80 185 L 281 185 L 281 16 L 80 16 Z M 80 185 "/>
<g fill="rgb(0%, 0%, 0%)" fill-opacity="1">
<use xlink:href="#glyph-0-0-ed4a5f4e" x="176.359999" y="231.478"/>
</g>
<g fill="rgb(0%, 0%, 0%)" fill-opacity="1">
<use xlink:href="#glyph-1-0-ed4a5f4e" x="74.996" y="210.046"/>
</g>
<g fill="rgb(0%, 0%, 0%)" fill-opacity="1">
<use xlink:href="#glyph-1-1-ed4a5f4e" x="125.246" y="210.046"/>
</g>
<g fill="rgb(0%, 0%, 0%)" fill-opacity="1">
<use xlink:href="#glyph-1-2-ed4a5f4e" x="170.492" y="210.046"/>
</g>
<g fill="rgb(0%, 0%, 0%)" fill-opacity="1">
<use xlink:href="#glyph-1-0-ed4a5f4e" x="180.499999" y="210.046"/>
</g>
<g fill="rgb(0%, 0%, 0%)" fill-opacity="1">
<use xlink:href="#glyph-1-2-ed4a5f4e" x="220.742" y="210.046"/>
</g>
<g fill="rgb(0%, 0%, 0%)" fill-opacity="1">
<use xlink:href="#glyph-1-1-ed4a5f4e" x="230.749999" y="210.046"/>
</g>
<g fill="rgb(0%, 0%, 0%)" fill-opacity="1">
<use xlink:href="#glyph-1-3-ed4a5f4e" x="270.992" y="210.046"/>
</g>
<g fill="rgb(0%, 0%, 0%)" fill-opacity="1">
<use xlink:href="#glyph-1-0-ed4a5f4e" x="280.999999" y="210.046"/>
</g>
<g fill="rgb(0%, 0%, 0%)" fill-opacity="1">
<use xlink:href="#glyph-2-0-ed4a5f4e" x="34.284801" y="147.564593"/>
</g>
<g fill="rgb(0%, 0%, 0%)" fill-opacity="1">
<use xlink:href="#glyph-3-0-ed4a5f4e" x="34.284801" y="140.400591"/>
</g>
<g fill="rgb(0%, 0%, 0%)" fill-opacity="1">
<use xlink:href="#glyph-4-0-ed4a5f4e" x="29.496802" y="127.476595"/>
</g>
<g fill="rgb(0%, 0%, 0%)" fill-opacity="1">
<use xlink:href="#glyph-5-0-ed4a5f4e" x="26.526804" y="124.020591"/>
</g>
<g fill="rgb(0%, 0%, 0%)" fill-opacity="1">
<use xlink:href="#glyph-6-0-ed4a5f4e" x="34.284803" y="115.452595"/>
</g>
<g fill="rgb(0%, 0%, 0%)" fill-opacity="1">
<use xlink:href="#glyph-7-0-ed4a5f4e" x="34.284804" y="97.848591"/>
</g>
<g fill="rgb(0%, 0%, 0%)" fill-opacity="1">
<use xlink:href="#glyph-8-0-ed4a5f4e" x="29.496805" y="84.924595"/>
</g>
<g fill="rgb(0%, 0%, 0%)" fill-opacity="1">
<use xlink:href="#glyph-9-0-ed4a5f4e" x="26.526806" y="81.468595"/>
</g>
<g fill="rgb(0%, 0%, 0%)" fill-opacity="1">
<use xlink:href="#glyph-5-0-ed4a5f4e" x="26.526806" y="77.267393"/>
</g>
<g fill="rgb(0%, 0%, 0%)" fill-opacity="1">
<use xlink:href="#glyph-10-0-ed4a5f4e" x="26.526807" y="72.29939"/>
</g>
<g fill="rgb(0%, 0%, 0%)" fill-opacity="1">
<use xlink:href="#glyph-11-0-ed4a5f4e" x="34.284806" y="68.098197"/>
</g>
<g fill="rgb(0%, 0%, 0%)" fill-opacity="1">
<use xlink:href="#glyph-12-0-ed4a5f4e" x="37.884806" y="60.487792"/>
</g>
<g fill="rgb(0%, 0%, 0%)" fill-opacity="1">
<use xlink:href="#glyph-1-0-ed4a5f4e" x="44.980001" y="191.560998"/>
</g>
<g fill="rgb(0%, 0%, 0%)" fill-opacity="1">
<use xlink:href="#glyph-13-0-ed4a5f4e" x="54.988001" y="191.560998"/>
</g>
<g fill="rgb(0%, 0%, 0%)" fill-opacity="1">
<use xlink:href="#glyph-1-0-ed4a5f4e" x="59.992" y="191.560998"/>
</g>
<g fill="rgb(0%, 0%, 0%)" fill-opacity="1">
<use xlink:href="#glyph-1-0-ed4a5f4e" x="44.980001" y="107.060994"/>
</g>
<g fill="rgb(0%, 0%, 0%)" fill-opacity="1">
<use xlink:href="#glyph-13-0-ed4a5f4e" x="54.988001" y="107.060994"/>
</g>
<g fill="rgb(0%, 0%, 0%)" fill-opacity="1">
<use xlink:href="#glyph-1-1-ed4a5f4e" x="59.992" y="107.060994"/>
</g>
<g fill="rgb(0%, 0%, 0%)" fill-opacity="1">
<use xlink:href="#glyph-14-0-ed4a5f4e" x="44.980001" y="22.56099"/>
</g>
<g fill="rgb(0%, 0%, 0%)" fill-opacity="1">
<use xlink:href="#glyph-15-0-ed4a5f4e" x="54.988001" y="22.56099"/>
</g>
<g fill="rgb(0%, 0%, 0%)" fill-opacity="1">
<use xlink:href="#glyph-14-1-ed4a5f4e" x="59.992" y="22.56099"/>
</g>
<g clip-path="url(#clip-0-ed4a5f4e)">
<path fill="none" stroke-width="0.7" stroke-linecap="butt" stroke-linejoin="miter" stroke="rgb(100%, 64.705884%, 0%)" stroke-opacity="0.2" stroke-miterlimit="2" d="M 90.050781 185 L 100.101562 108.113281 L 110.148438 83.269531 L 120.199219 70.929688 L 130.25 63.675781 L 140.300781 59.867188 L 150.351562 57.972656 L 160.398438 57.292969 L 170.449219 57.261719 L 180.5 57.6875 L 190.550781 58.480469 L 200.601562 59.03125 L 210.648438 59.75 L 220.699219 60.25 L 230.75 60.671875 L 240.800781 61.207031 L 250.851562 61.722656 L 260.898438 62.027344 L 270.949219 62.367188 L 281 62.742188 "/>
</g>
<g clip-path="url(#clip-1-ed4a5f4e)">
<path fill="none" stroke-width="0.7" stroke-linecap="butt" stroke-linejoin="miter" stroke="rgb(100%, 64.705884%, 0%)" stroke-opacity="0.2" stroke-miterlimit="2" d="M 90.050781 185 L 100.101562 109.320312 L 110.148438 81.902344 L 120.199219 68.015625 L 130.25 60.867188 L 140.300781 57.1875 L 150.351562 55.394531 L 160.398438 55.140625 L 170.449219 55.597656 L 180.5 56.265625 L 190.550781 57.078125 L 200.601562 57.722656 L 210.648438 58.300781 L 220.699219 58.6875 L 230.75 59.3125 L 240.800781 59.648438 L 250.851562 60.144531 L 260.898438 60.800781 L 270.949219 61.085938 L 281 61.851562 "/>
</g>
<g clip-path="url(#clip-2-ed4a5f4e)">
<path fill="none" stroke-width="0.7" stroke-linecap="butt" stroke-linejoin="miter" stroke="rgb(100%, 64.705884%, 0%)" stroke-opacity="0.2" stroke-miterlimit="2" d="M 90.050781 185 L 100.101562 113.132812 L 110.148438 88.871094 L 120.199219 76.234375 L 130.25 69.628906 L 140.300781 65.171875 L 150.351562 62.058594 L 160.398438 60.160156 L 170.449219 58.835938 L 180.5 57.613281 L 190.550781 56.394531 L 200.601562 55.675781 L 210.648438 55.199219 L 220.699219 54.761719 L 230.75 54.644531 L 240.800781 54.472656 L 250.851562 54.359375 L 260.898438 53.996094 L 270.949219 53.617188 L 281 53.683594 "/>
</g>
<g clip-path="url(#clip-3-ed4a5f4e)">
<path fill="none" stroke-width="0.7" stroke-linecap="butt" stroke-linejoin="miter" stroke="rgb(100%, 64.705884%, 0%)" stroke-opacity="0.2" stroke-miterlimit="2" d="M 90.050781 185 L 100.101562 110.945312 L 110.148438 81.816406 L 120.199219 67.796875 L 130.25 61.417969 L 140.300781 58.679688 L 150.351562 57.742188 L 160.398438 57.351562 L 170.449219 57.433594 L 180.5 57.917969 L 190.550781 58.691406 L 200.601562 59.53125 L 210.648438 60.242188 L 220.699219 60.769531 L 230.75 61.257812 L 240.800781 61.714844 L 250.851562 62.535156 L 260.898438 63.214844 L 270.949219 63.542969 L 281 63.792969 "/>
</g>
<g clip-path="url(#clip-4-ed4a5f4e)">
<path fill="none" stroke-width="0.7" stroke-linecap="butt" stroke-linejoin="miter" stroke="rgb(100%, 64.705884%, 0%)" stroke-opacity="0.2" stroke-miterlimit="2" d="M 90.050781 185 L 100.101562 114.246094 L 110.148438 89.277344 L 120.199219 75.917969 L 130.25 67.210938 L 140.300781 61.6875 L 150.351562 57.667969 L 160.398438 54.972656 L 170.449219 52.6875 L 180.5 50.746094 L 190.550781 49.539062 L 200.601562 48.785156 L 210.648438 47.738281 L 220.699219 47.078125 L 230.75 46.558594 L 240.800781 46.46875 L 250.851562 46.589844 L 260.898438 46.671875 L 270.949219 46.6875 L 281 46.785156 "/>
</g>
<g clip-path="url(#clip-5-ed4a5f4e)">
<path fill="none" stroke-width="0.7" stroke-linecap="butt" stroke-linejoin="miter" stroke="rgb(100%, 64.705884%, 0%)" stroke-opacity="0.2" stroke-miterlimit="2" d="M 90.050781 185 L 100.101562 114.285156 L 110.148438 86.0625 L 120.199219 71.539062 L 130.25 63.472656 L 140.300781 58.386719 L 150.351562 55.449219 L 160.398438 54.039062 L 170.449219 53.304688 L 180.5 53.113281 L 190.550781 53.363281 L 200.601562 53.054688 L 210.648438 53.082031 L 220.699219 52.785156 L 230.75 53.128906 L 240.800781 53.273438 L 250.851562 53.601562 L 260.898438 53.839844 L 270.949219 53.964844 L 281 53.996094 "/>
</g>
<g clip-path="url(#clip-6-ed4a5f4e)">
<path fill="none" stroke-width="0.7" stroke-linecap="butt" stroke-linejoin="miter" stroke="rgb(100%, 64.705884%, 0%)" stroke-opacity="0.2" stroke-miterlimit="2" d="M 90.050781 185 L 100.101562 106.742188 L 110.148438 82.269531 L 120.199219 71.632812 L 130.25 67.292969 L 140.300781 65.34375 L 150.351562 64.75 L 160.398438 65.585938 L 170.449219 66.992188 L 180.5 68.472656 L 190.550781 69.875 L 200.601562 70.882812 L 210.648438 71.796875 L 220.699219 72.480469 L 230.75 73.242188 L 240.800781 73.886719 L 250.851562 74.378906 L 260.898438 74.640625 L 270.949219 75.21875 L 281 75.355469 "/>
</g>
<g clip-path="url(#clip-7-ed4a5f4e)">
<path fill="none" stroke-width="0.7" stroke-linecap="butt" stroke-linejoin="miter" stroke="rgb(100%, 64.705884%, 0%)" stroke-opacity="0.2" stroke-miterlimit="2" d="M 90.050781 185 L 100.101562 103.78125 L 110.148438 79.511719 L 120.199219 68.878906 L 130.25 64.230469 L 140.300781 61.796875 L 150.351562 61.011719 L 160.398438 61.222656 L 170.449219 61.832031 L 180.5 63.023438 L 190.550781 64.027344 L 200.601562 64.800781 L 210.648438 65.738281 L 220.699219 66.617188 L 230.75 67.425781 L 240.800781 68.214844 L 250.851562 68.816406 L 260.898438 69.523438 L 270.949219 69.851562 L 281 70.09375 "/>
</g>
<g clip-path="url(#clip-8-ed4a5f4e)">
<path fill="none" stroke-width="0.7" stroke-linecap="butt" stroke-linejoin="miter" stroke="rgb(100%, 64.705884%, 0%)" stroke-opacity="0.2" stroke-miterlimit="2" d="M 90.050781 185 L 100.101562 106.609375 L 110.148438 84.90625 L 120.199219 76.703125 L 130.25 74.261719 L 140.300781 74.574219 L 150.351562 75.746094 L 160.398438 76.945312 L 170.449219 78.410156 L 180.5 79.882812 L 190.550781 81.304688 L 200.601562 82.472656 L 210.648438 82.742188 L 220.699219 83.382812 L 230.75 83.59375 L 240.800781 84.203125 L 250.851562 84.476562 L 260.898438 84.726562 L 270.949219 85.195312 L 281 85.386719 "/>
</g>
<g clip-path="url(#clip-9-ed4a5f4e)">
<path fill="none" stroke-width="0.7" stroke-linecap="butt" stroke-linejoin="miter" stroke="rgb(100%, 64.705884%, 0%)" stroke-opacity="0.2" stroke-miterlimit="2" d="M 90.050781 185 L 100.101562 105.316406 L 110.148438 80.492188 L 120.199219 69.117188 L 130.25 63.351562 L 140.300781 60.578125 L 150.351562 59.886719 L 160.398438 60.289062 L 170.449219 61.101562 L 180.5 62.214844 L 190.550781 63.324219 L 200.601562 64.179688 L 210.648438 65.171875 L 220.699219 66.125 L 230.75 67.179688 L 240.800781 67.832031 L 250.851562 68.230469 L 260.898438 68.929688 L 270.949219 69.492188 L 281 69.746094 "/>
</g>
<g clip-path="url(#clip-10-ed4a5f4e)">
<path fill="none" stroke-width="0.7" stroke-linecap="butt" stroke-linejoin="miter" stroke="rgb(100%, 64.705884%, 0%)" stroke-opacity="0.2" stroke-miterlimit="2" d="M 90.050781 185 L 100.101562 109.539062 L 110.148438 85.074219 L 120.199219 73.882812 L 130.25 68.421875 L 140.300781 66.570312 L 150.351562 65.960938 L 160.398438 66.316406 L 170.449219 67.425781 L 180.5 68.488281 L 190.550781 69.121094 L 200.601562 69.960938 L 210.648438 70.753906 L 220.699219 71.335938 L 230.75 71.976562 L 240.800781 72.265625 L 250.851562 72.625 L 260.898438 73.09375 L 270.949219 73.222656 L 281 73.175781 "/>
</g>
<g clip-path="url(#clip-11-ed4a5f4e)">
<path fill="none" stroke-width="0.7" stroke-linecap="butt" stroke-linejoin="miter" stroke="rgb(100%, 64.705884%, 0%)" stroke-opacity="0.2" stroke-miterlimit="2" d="M 90.050781 185 L 100.101562 107.164062 L 110.148438 81.054688 L 120.199219 69.375 L 130.25 63.222656 L 140.300781 60.84375 L 150.351562 60.28125 L 160.398438 60.398438 L 170.449219 60.867188 L 180.5 61.871094 L 190.550781 62.605469 L 200.601562 63.324219 L 210.648438 63.988281 L 220.699219 64.488281 L 230.75 64.953125 L 240.800781 65.503906 L 250.851562 66.042969 L 260.898438 66.449219 L 270.949219 66.898438 L 281 66.832031 "/>
<path fill="none" stroke-width="0.7" stroke-linecap="butt" stroke-linejoin="miter" stroke="rgb(100%, 64.705884%, 0%)" stroke-opacity="0.2" stroke-miterlimit="2" d="M 90.050781 185 L 100.101562 114.113281 L 110.148438 89.453125 L 120.199219 75.890625 L 130.25 68.609375 L 140.300781 64.355469 L 150.351562 62.054688 L 160.398438 60.984375 L 170.449219 60.460938 L 180.5 60.554688 L 190.550781 60.761719 L 200.601562 61.042969 L 210.648438 61.15625 L 220.699219 61.453125 L 230.75 61.804688 L 240.800781 61.824219 L 250.851562 62.023438 L 260.898438 62.046875 L 270.949219 62.28125 L 281 62.402344 "/>
</g>
<g clip-path="url(#clip-12-ed4a5f4e)">
<path fill="none" stroke-width="0.7" stroke-linecap="butt" stroke-linejoin="miter" stroke="rgb(100%, 64.705884%, 0%)" stroke-opacity="0.2" stroke-miterlimit="2" d="M 90.050781 185 L 100.101562 115.703125 L 110.148438 90.226562 L 120.199219 77.929688 L 130.25 71.261719 L 140.300781 67.699219 L 150.351562 66.097656 L 160.398438 65.300781 L 170.449219 65.417969 L 180.5 65.554688 L 190.550781 65.523438 L 200.601562 65.699219 L 210.648438 65.570312 L 220.699219 65.617188 L 230.75 65.710938 L 240.800781 66.082031 L 250.851562 65.949219 L 260.898438 65.910156 L 270.949219 65.746094 L 281 65.988281 "/>
</g>
<g clip-path="url(#clip-13-ed4a5f4e)">
<path fill="none" stroke-width="0.7" stroke-linecap="butt" stroke-linejoin="miter" stroke="rgb(100%, 64.705884%, 0%)" stroke-opacity="0.2" stroke-miterlimit="2" d="M 90.050781 185 L 100.101562 115.074219 L 110.148438 95.421875 L 120.199219 84.925781 L 130.25 78.019531 L 140.300781 72.707031 L 150.351562 68.332031 L 160.398438 64.574219 L 170.449219 61.914062 L 180.5 59.769531 L 190.550781 58.679688 L 200.601562 56.953125 L 210.648438 55.921875 L 220.699219 55.335938 L 230.75 55.617188 L 240.800781 55.039062 L 250.851562 54.464844 L 260.898438 53.910156 L 270.949219 53.929688 L 281 53.609375 "/>
</g>
<g clip-path="url(#clip-14-ed4a5f4e)">
<path fill="none" stroke-width="0.7" stroke-linecap="butt" stroke-linejoin="miter" stroke="rgb(100%, 64.705884%, 0%)" stroke-opacity="0.2" stroke-miterlimit="2" d="M 90.050781 185 L 100.101562 113.9375 L 110.148438 87.644531 L 120.199219 75.160156 L 130.25 68.871094 L 140.300781 65.8125 L 150.351562 64.101562 L 160.398438 63.054688 L 170.449219 62.316406 L 180.5 62.015625 L 190.550781 61.609375 L 200.601562 61.328125 L 210.648438 61.4375 L 220.699219 61.648438 L 230.75 61.960938 L 240.800781 61.929688 L 250.851562 61.976562 L 260.898438 62.074219 L 270.949219 62.328125 L 281 62.378906 "/>
</g>
<g clip-path="url(#clip-15-ed4a5f4e)">
<path fill="none" stroke-width="0.7" stroke-linecap="butt" stroke-linejoin="miter" stroke="rgb(100%, 64.705884%, 0%)" stroke-opacity="0.2" stroke-miterlimit="2" d="M 90.050781 185 L 100.101562 118.351562 L 110.148438 93.40625 L 120.199219 79.761719 L 130.25 71.128906 L 140.300781 65.589844 L 150.351562 61.019531 L 160.398438 57.445312 L 170.449219 54.550781 L 180.5 51.960938 L 190.550781 50.558594 L 200.601562 48.714844 L 210.648438 47.378906 L 220.699219 46.214844 L 230.75 45.507812 L 240.800781 44.4375 L 250.851562 43.847656 L 260.898438 43.273438 L 270.949219 42.890625 L 281 42.914062 "/>
</g>
<g clip-path="url(#clip-16-ed4a5f4e)">
<path fill="none" stroke-width="0.7" stroke-linecap="butt" stroke-linejoin="miter" stroke="rgb(100%, 64.705884%, 0%)" stroke-opacity="0.2" stroke-miterlimit="2" d="M 90.050781 185 L 100.101562 117.53125 L 110.148438 92.835938 L 120.199219 79.636719 L 130.25 71.171875 L 140.300781 65.269531 L 150.351562 60.972656 L 160.398438 57.855469 L 170.449219 55.285156 L 180.5 53.371094 L 190.550781 51.824219 L 200.601562 50.761719 L 210.648438 49.851562 L 220.699219 49.09375 L 230.75 48.785156 L 240.800781 48.382812 L 250.851562 48.242188 L 260.898438 47.808594 L 270.949219 47.730469 L 281 47.789062 "/>
</g>
<g clip-path="url(#clip-17-ed4a5f4e)">
<path fill="none" stroke-width="0.7" stroke-linecap="butt" stroke-linejoin="miter" stroke="rgb(100%, 64.705884%, 0%)" stroke-opacity="0.2" stroke-miterlimit="2" d="M 90.050781 185 L 100.101562 107.746094 L 110.148438 81.398438 L 120.199219 68.882812 L 130.25 63.496094 L 140.300781 61.488281 L 150.351562 61.089844 L 160.398438 61.546875 L 170.449219 62.066406 L 180.5 62.996094 L 190.550781 63.855469 L 200.601562 64.632812 L 210.648438 65.128906 L 220.699219 65.890625 L 230.75 66.050781 L 240.800781 66.640625 L 250.851562 67.09375 L 260.898438 67.277344 L 270.949219 67.300781 L 281 67.558594 "/>
</g>
<g clip-path="url(#clip-18-ed4a5f4e)">
<path fill="none" stroke-width="0.7" stroke-linecap="butt" stroke-linejoin="miter" stroke="rgb(100%, 64.705884%, 0%)" stroke-opacity="0.2" stroke-miterlimit="2" d="M 90.050781 185 L 100.101562 107.597656 L 110.148438 78.289062 L 120.199219 63.84375 L 130.25 55.152344 L 140.300781 50.175781 L 150.351562 47.5625 L 160.398438 46.179688 L 170.449219 46.035156 L 180.5 46.527344 L 190.550781 47.257812 L 200.601562 48.191406 L 210.648438 49.214844 L 220.699219 50.175781 L 230.75 51.109375 L 240.800781 51.761719 L 250.851562 52.433594 L 260.898438 53.003906 L 270.949219 53.523438 L 281 53.890625 "/>
</g>
<g clip-path="url(#clip-19-ed4a5f4e)">
<path fill="none" stroke-width="0.7" stroke-linecap="butt" stroke-linejoin="miter" stroke="rgb(100%, 64.705884%, 0%)" stroke-opacity="0.2" stroke-miterlimit="2" d="M 90.050781 185 L 100.101562 108.445312 L 110.148438 83.230469 L 120.199219 71.808594 L 130.25 67.355469 L 140.300781 65.558594 L 150.351562 65.175781 L 160.398438 65.980469 L 170.449219 66.722656 L 180.5 67.578125 L 190.550781 68.78125 L 200.601562 69.632812 L 210.648438 69.90625 L 220.699219 70.445312 L 230.75 70.84375 L 240.800781 71.316406 L 250.851562 71.441406 L 260.898438 71.78125 L 270.949219 71.882812 L 281 72.089844 "/>
</g>
<g clip-path="url(#clip-20-ed4a5f4e)">
<path fill="none" stroke-width="0.7" stroke-linecap="butt" stroke-linejoin="miter" stroke="rgb(100%, 64.705884%, 0%)" stroke-opacity="0.2" stroke-miterlimit="2" d="M 90.050781 185 L 100.101562 101.339844 L 110.148438 75.027344 L 120.199219 63.011719 L 130.25 57.230469 L 140.300781 54.839844 L 150.351562 54.089844 L 160.398438 54.578125 L 170.449219 55.6875 L 180.5 57.289062 L 190.550781 58.421875 L 200.601562 59.382812 L 210.648438 60.566406 L 220.699219 61.632812 L 230.75 62.644531 L 240.800781 63.191406 L 250.851562 63.582031 L 260.898438 64.058594 L 270.949219 64.507812 L 281 64.882812 "/>
</g>
<g clip-path="url(#clip-21-ed4a5f4e)">
<path fill="none" stroke-width="0.7" stroke-linecap="butt" stroke-linejoin="miter" stroke="rgb(100%, 64.705884%, 0%)" stroke-opacity="0.2" stroke-miterlimit="2" d="M 90.050781 185 L 100.101562 111.851562 L 110.148438 84.230469 L 120.199219 69.316406 L 130.25 61.214844 L 140.300781 56.832031 L 150.351562 54.308594 L 160.398438 52.757812 L 170.449219 52.164062 L 180.5 51.945312 L 190.550781 52.128906 L 200.601562 52.554688 L 210.648438 52.671875 L 220.699219 53.054688 L 240.800781 53.4375 L 250.851562 53.917969 L 260.898438 53.753906 L 270.949219 54 L 281 53.894531 "/>
<path fill="none" stroke-width="0.7" stroke-linecap="butt" stroke-linejoin="miter" stroke="rgb(100%, 64.705884%, 0%)" stroke-opacity="0.2" stroke-miterlimit="2" d="M 90.050781 185 L 100.101562 107.710938 L 110.148438 80.523438 L 120.199219 66.730469 L 130.25 58.988281 L 140.300781 54.738281 L 150.351562 52.492188 L 160.398438 51.890625 L 170.449219 52.238281 L 180.5 52.5625 L 190.550781 53.355469 L 200.601562 54.394531 L 210.648438 55.007812 L 220.699219 55.875 L 230.75 56.371094 L 240.800781 56.628906 L 250.851562 56.988281 L 260.898438 57.550781 L 270.949219 57.628906 L 281 58.164062 "/>
</g>
<g clip-path="url(#clip-22-ed4a5f4e)">
<path fill="none" stroke-width="0.7" stroke-linecap="butt" stroke-linejoin="miter" stroke="rgb(100%, 64.705884%, 0%)" stroke-opacity="0.2" stroke-miterlimit="2" d="M 90.050781 185 L 100.101562 113.386719 L 110.148438 92.390625 L 120.199219 83.230469 L 130.25 78.96875 L 140.300781 77.617188 L 150.351562 77.050781 L 160.398438 76.949219 L 170.449219 77.316406 L 180.5 77.699219 L 190.550781 77.457031 L 200.601562 77.605469 L 210.648438 78.179688 L 220.699219 78.203125 L 230.75 78.667969 L 240.800781 78.726562 L 250.851562 78.792969 L 260.898438 78.933594 L 270.949219 78.820312 L 281 78.863281 "/>
</g>
<g clip-path="url(#clip-23-ed4a5f4e)">
<path fill="none" stroke-width="0.7" stroke-linecap="butt" stroke-linejoin="miter" stroke="rgb(100%, 64.705884%, 0%)" stroke-opacity="0.2" stroke-miterlimit="2" d="M 90.050781 185 L 100.101562 113.433594 L 110.148438 90.035156 L 120.199219 79.605469 L 130.25 74.628906 L 140.300781 72.921875 L 150.351562 72.410156 L 160.398438 73.089844 L 170.449219 73.710938 L 180.5 74.085938 L 190.550781 74.9375 L 200.601562 75.242188 L 210.648438 75.480469 L 220.699219 75.769531 L 230.75 75.886719 L 240.800781 76.191406 L 250.851562 76.5 L 260.898438 76.832031 L 270.949219 76.660156 L 281 76.863281 "/>
</g>
<g clip-path="url(#clip-24-ed4a5f4e)">
<path fill="none" stroke-width="0.7" stroke-linecap="butt" stroke-linejoin="miter" stroke="rgb(100%, 64.705884%, 0%)" stroke-opacity="0.2" stroke-miterlimit="2" d="M 90.050781 185 L 100.101562 118.003906 L 110.148438 97.785156 L 120.199219 86.128906 L 130.25 78.40625 L 140.300781 73.152344 L 150.351562 68.792969 L 160.398438 65.414062 L 170.449219 63.4375 L 180.5 62.089844 L 190.550781 61 L 200.601562 60.75 L 210.648438 59.992188 L 220.699219 59.425781 L 230.75 59.15625 L 240.800781 58.542969 L 250.851562 58.335938 L 260.898438 58.652344 L 270.949219 58.632812 L 281 59.035156 "/>
</g>
<g clip-path="url(#clip-25-ed4a5f4e)">
<path fill="none" stroke-width="0.7" stroke-linecap="butt" stroke-linejoin="miter" stroke="rgb(100%, 64.705884%, 0%)" stroke-opacity="0.2" stroke-miterlimit="2" d="M 90.050781 185 L 100.101562 115.382812 L 110.148438 90.230469 L 120.199219 78.3125 L 130.25 72.851562 L 140.300781 70.867188 L 150.351562 69.695312 L 160.398438 69.613281 L 170.449219 69.878906 L 180.5 70 L 190.550781 70.375 L 200.601562 70.835938 L 210.648438 71.1875 L 220.699219 71.476562 L 230.75 71.808594 L 240.800781 72.066406 L 250.851562 71.921875 L 260.898438 72.339844 L 270.949219 72.214844 L 281 72.214844 "/>
</g>
<g clip-path="url(#clip-26-ed4a5f4e)">
<path fill="none" stroke-width="0.7" stroke-linecap="butt" stroke-linejoin="miter" stroke="rgb(100%, 64.705884%, 0%)" stroke-opacity="0.2" stroke-miterlimit="2" d="M 90.050781 185 L 100.101562 114.902344 L 110.148438 93.035156 L 120.199219 81.695312 L 130.25 74.75 L 140.300781 70.707031 L 150.351562 67.984375 L 160.398438 66.324219 L 170.449219 64.464844 L 180.5 64.210938 L 190.550781 63.871094 L 200.601562 63.34375 L 210.648438 63.324219 L 220.699219 62.808594 L 230.75 62.984375 L 240.800781 62.5625 L 250.851562 62.652344 L 260.898438 62.746094 L 270.949219 62.21875 L 281 62.324219 "/>
</g>
<g clip-path="url(#clip-27-ed4a5f4e)">
<path fill="none" stroke-width="0.7" stroke-linecap="butt" stroke-linejoin="miter" stroke="rgb(100%, 64.705884%, 0%)" stroke-opacity="0.2" stroke-miterlimit="2" d="M 90.050781 185 L 100.101562 114.527344 L 110.148438 89.453125 L 120.199219 77.613281 L 130.25 71.664062 L 140.300781 68.875 L 150.351562 67.6875 L 160.398438 66.996094 L 170.449219 66.71875 L 180.5 66.5625 L 190.550781 66.773438 L 200.601562 66.910156 L 210.648438 66.84375 L 220.699219 66.800781 L 230.75 66.921875 L 240.800781 66.511719 L 250.851562 66.488281 L 260.898438 66.046875 L 270.949219 66.152344 L 281 66.125 "/>
</g>
<g clip-path="url(#clip-28-ed4a5f4e)">
<path fill="none" stroke-width="0.7" stroke-linecap="butt" stroke-linejoin="miter" stroke="rgb(100%, 64.705884%, 0%)" stroke-opacity="0.2" stroke-miterlimit="2" d="M 90.050781 185 L 100.101562 113.214844 L 110.148438 84.269531 L 120.199219 67 L 130.25 56.242188 L 140.300781 49.328125 L 150.351562 44.800781 L 160.398438 42.238281 L 170.449219 40.523438 L 180.5 39.425781 L 190.550781 39.292969 L 200.601562 39.203125 L 210.648438 39.445312 L 220.699219 39.8125 L 230.75 39.734375 L 240.800781 40.058594 L 250.851562 40.8125 L 260.898438 41.402344 L 270.949219 41.535156 L 281 41.8125 "/>
</g>
<g clip-path="url(#clip-29-ed4a5f4e)">
<path fill="none" stroke-width="0.7" stroke-linecap="butt" stroke-linejoin="miter" stroke="rgb(100%, 64.705884%, 0%)" stroke-opacity="0.2" stroke-miterlimit="2" d="M 90.050781 185 L 100.101562 109.425781 L 110.148438 78.277344 L 120.199219 61.285156 L 130.25 50.613281 L 140.300781 44.433594 L 150.351562 41.515625 L 160.398438 40.492188 L 170.449219 40.019531 L 180.5 40.019531 L 190.550781 40.296875 L 200.601562 40.582031 L 210.648438 41.207031 L 220.699219 41.753906 L 230.75 42.476562 L 240.800781 43.308594 L 250.851562 44.03125 L 260.898438 44.589844 L 270.949219 45.070312 L 281 45.4375 "/>
</g>
<g clip-path="url(#clip-30-ed4a5f4e)">
<path fill="none" stroke-width="0.7" stroke-linecap="butt" stroke-linejoin="miter" stroke="rgb(100%, 64.705884%, 0%)" stroke-opacity="0.2" stroke-miterlimit="2" d="M 90.050781 185 L 100.101562 111.011719 L 110.148438 82.839844 L 120.199219 66.71875 L 130.25 57.160156 L 140.300781 50.792969 L 150.351562 47.050781 L 160.398438 44.722656 L 170.449219 43.585938 L 180.5 42.898438 L 190.550781 42.976562 L 200.601562 43.539062 L 210.648438 44.046875 L 220.699219 44.617188 L 230.75 45.300781 L 240.800781 45.914062 L 250.851562 46.289062 L 260.898438 46.796875 L 270.949219 47.222656 L 281 47.523438 "/>
</g>
<g clip-path="url(#clip-31-ed4a5f4e)">
<path fill="none" stroke-width="0.7" stroke-linecap="butt" stroke-linejoin="miter" stroke="rgb(100%, 64.705884%, 0%)" stroke-opacity="0.2" stroke-miterlimit="2" d="M 90.050781 185 L 100.101562 109.429688 L 110.148438 79.40625 L 120.199219 62.921875 L 130.25 53.164062 L 140.300781 47.292969 L 150.351562 44.023438 L 160.398438 42.023438 L 170.449219 41.28125 L 180.5 40.839844 L 190.550781 40.996094 L 200.601562 41.351562 L 210.648438 42.078125 L 220.699219 42.855469 L 230.75 43.527344 L 240.800781 44.324219 L 250.851562 45.125 L 260.898438 45.3125 L 270.949219 45.625 L 281 46.085938 "/>
</g>
<g clip-path="url(#clip-32-ed4a5f4e)">
<path fill="none" stroke-width="0.7" stroke-linecap="butt" stroke-linejoin="miter" stroke="rgb(100%, 64.705884%, 0%)" stroke-opacity="0.2" stroke-miterlimit="2" d="M 90.050781 185 L 100.101562 116.867188 L 110.148438 89.339844 L 120.199219 71.410156 L 130.25 59.292969 L 140.300781 51.117188 L 150.351562 45.488281 L 160.398438 41.773438 L 170.449219 39.449219 L 180.5 37.515625 L 190.550781 36.34375 L 200.601562 35.769531 L 210.648438 35.023438 L 220.699219 34.636719 L 230.75 34.445312 L 240.800781 34.011719 L 250.851562 34.058594 L 260.898438 34.113281 L 270.949219 34.207031 L 281 34.464844 "/>
</g>
<g clip-path="url(#clip-33-ed4a5f4e)">
<path fill="none" stroke-width="0.7" stroke-linecap="butt" stroke-linejoin="miter" stroke="rgb(100%, 64.705884%, 0%)" stroke-opacity="0.2" stroke-miterlimit="2" d="M 90.050781 185 L 100.101562 106.40625 L 110.148438 76.898438 L 120.199219 59.769531 L 130.25 49.214844 L 140.300781 43.089844 L 150.351562 39.578125 L 160.398438 37.652344 L 170.449219 36.472656 L 180.5 36.230469 L 190.550781 36.488281 L 200.601562 36.941406 L 210.648438 37.707031 L 220.699219 38.410156 L 240.800781 40.347656 L 250.851562 41.101562 L 260.898438 41.867188 L 270.949219 42.433594 L 281 42.984375 "/>
</g>
<g clip-path="url(#clip-34-ed4a5f4e)">
<path fill="none" stroke-width="0.7" stroke-linecap="butt" stroke-linejoin="miter" stroke="rgb(27.450982%, 50.980395%, 70.588237%)" stroke-opacity="0.2" stroke-miterlimit="2" d="M 90.050781 185 L 100.101562 96.652344 L 110.148438 72.457031 L 120.199219 60.023438 L 130.25 55.089844 L 140.300781 53.625 L 150.351562 52.316406 L 160.398438 52.066406 L 170.449219 52.71875 L 180.5 54.933594 L 190.550781 55.613281 L 200.601562 57.285156 L 210.648438 57.761719 L 220.699219 58.539062 L 230.75 60.449219 L 240.800781 61.332031 L 250.851562 61.289062 L 260.898438 61.222656 L 270.949219 61.421875 L 281 60.84375 "/>
</g>
<g clip-path="url(#clip-35-ed4a5f4e)">
<path fill="none" stroke-width="0.7" stroke-linecap="butt" stroke-linejoin="miter" stroke="rgb(27.450982%, 50.980395%, 70.588237%)" stroke-opacity="0.2" stroke-miterlimit="2" d="M 90.050781 185 L 100.101562 94.175781 L 110.148438 66.09375 L 120.199219 54.289062 L 130.25 50.28125 L 140.300781 47.488281 L 150.351562 47.34375 L 160.398438 46.117188 L 170.449219 46.925781 L 180.5 48.398438 L 190.550781 49.4375 L 200.601562 51.167969 L 210.648438 52.628906 L 220.699219 52.648438 L 230.75 53.617188 L 240.800781 54.429688 L 250.851562 55.386719 L 260.898438 56.628906 L 270.949219 57.714844 L 281 58.902344 "/>
</g>
<g clip-path="url(#clip-36-ed4a5f4e)">
<path fill="none" stroke-width="0.7" stroke-linecap="butt" stroke-linejoin="miter" stroke="rgb(27.450982%, 50.980395%, 70.588237%)" stroke-opacity="0.2" stroke-miterlimit="2" d="M 90.050781 185 L 100.101562 99.019531 L 110.148438 77.300781 L 120.199219 62.398438 L 130.25 55.820312 L 140.300781 52.054688 L 150.351562 50.746094 L 160.398438 50.007812 L 170.449219 50.71875 L 180.5 50.070312 L 190.550781 50.554688 L 200.601562 51.121094 L 210.648438 51.632812 L 220.699219 52.816406 L 230.75 53.839844 L 240.800781 54.140625 L 250.851562 54.710938 L 260.898438 55.257812 L 270.949219 55.15625 L 281 55.550781 "/>
</g>
<g clip-path="url(#clip-37-ed4a5f4e)">
<path fill="none" stroke-width="0.7" stroke-linecap="butt" stroke-linejoin="miter" stroke="rgb(27.450982%, 50.980395%, 70.588237%)" stroke-opacity="0.2" stroke-miterlimit="2" d="M 90.050781 185 L 100.101562 97.464844 L 110.148438 65.492188 L 120.199219 47.847656 L 130.25 42.648438 L 140.300781 40.121094 L 150.351562 41.320312 L 160.398438 41.3125 L 170.449219 42.183594 L 180.5 43.449219 L 190.550781 45.335938 L 200.601562 47.242188 L 210.648438 48.996094 L 220.699219 50.226562 L 230.75 52.183594 L 240.800781 54.484375 L 250.851562 56.28125 L 260.898438 56.878906 L 270.949219 57.792969 L 281 58.058594 "/>
</g>
<g clip-path="url(#clip-38-ed4a5f4e)">
<path fill="none" stroke-width="0.7" stroke-linecap="butt" stroke-linejoin="miter" stroke="rgb(27.450982%, 50.980395%, 70.588237%)" stroke-opacity="0.2" stroke-miterlimit="2" d="M 90.050781 185 L 100.101562 105.171875 L 110.148438 82.015625 L 120.199219 67.28125 L 130.25 59.71875 L 140.300781 54.574219 L 150.351562 52.109375 L 160.398438 49.921875 L 170.449219 48.609375 L 180.5 47.53125 L 190.550781 45.949219 L 200.601562 45.699219 L 210.648438 45.84375 L 220.699219 44.261719 L 230.75 43.644531 L 240.800781 43.632812 L 250.851562 42.828125 L 260.898438 43.207031 L 270.949219 42.015625 L 281 41.9375 "/>
</g>
<g clip-path="url(#clip-39-ed4a5f4e)">
<path fill="none" stroke-width="0.7" stroke-linecap="butt" stroke-linejoin="miter" stroke="rgb(27.450982%, 50.980395%, 70.588237%)" stroke-opacity="0.2" stroke-miterlimit="2" d="M 90.050781 185 L 100.101562 103.335938 L 110.148438 70.746094 L 120.199219 55.273438 L 130.25 47.675781 L 140.300781 44.503906 L 150.351562 42.472656 L 160.398438 43.074219 L 170.449219 43.300781 L 180.5 44.363281 L 190.550781 44.234375 L 200.601562 45.816406 L 210.648438 45.492188 L 220.699219 46.96875 L 230.75 47.03125 L 240.800781 48.546875 L 250.851562 49.6875 L 260.898438 48.695312 L 270.949219 49.804688 L 281 51.535156 "/>
</g>
<g clip-path="url(#clip-40-ed4a5f4e)">
<path fill="none" stroke-width="0.7" stroke-linecap="butt" stroke-linejoin="miter" stroke="rgb(27.450982%, 50.980395%, 70.588237%)" stroke-opacity="0.2" stroke-miterlimit="2" d="M 90.050781 185 L 100.101562 84.917969 L 110.148438 63.265625 L 120.199219 54.136719 L 130.25 49.78125 L 140.300781 48.996094 L 150.351562 48.964844 L 160.398438 50.820312 L 170.449219 51.734375 L 180.5 54.160156 L 190.550781 57.722656 L 200.601562 57.769531 L 210.648438 60.5625 L 220.699219 61.539062 L 230.75 63.058594 L 240.800781 64.914062 L 250.851562 65.179688 L 260.898438 66.75 L 270.949219 65.421875 L 281 68.050781 "/>
</g>
<g clip-path="url(#clip-41-ed4a5f4e)">
<path fill="none" stroke-width="0.7" stroke-linecap="butt" stroke-linejoin="miter" stroke="rgb(27.450982%, 50.980395%, 70.588237%)" stroke-opacity="0.2" stroke-miterlimit="2" d="M 90.050781 185 L 100.101562 84.671875 L 110.148438 60.179688 L 120.199219 47.050781 L 130.25 42.761719 L 140.300781 42.273438 L 150.351562 42.648438 L 160.398438 43.507812 L 170.449219 44.839844 L 180.5 46.558594 L 190.550781 48.617188 L 200.601562 51.300781 L 210.648438 52.914062 L 220.699219 53.601562 L 230.75 55.527344 L 240.800781 57.203125 L 250.851562 57.90625 L 260.898438 59.046875 L 270.949219 59.238281 L 281 61.359375 "/>
</g>
<g clip-path="url(#clip-42-ed4a5f4e)">
<path fill="none" stroke-width="0.7" stroke-linecap="butt" stroke-linejoin="miter" stroke="rgb(27.450982%, 50.980395%, 70.588237%)" stroke-opacity="0.2" stroke-miterlimit="2" d="M 90.050781 185 L 100.101562 87.0625 L 110.148438 66.632812 L 120.199219 56.429688 L 130.25 55.867188 L 140.300781 56.675781 L 150.351562 58.46875 L 160.398438 60.492188 L 170.449219 62.460938 L 180.5 65.457031 L 190.550781 67.773438 L 200.601562 69.652344 L 210.648438 71.238281 L 220.699219 72.644531 L 230.75 72.90625 L 240.800781 73.246094 L 250.851562 75.269531 L 260.898438 74.628906 L 270.949219 76.035156 L 281 76.53125 "/>
</g>
<g clip-path="url(#clip-43-ed4a5f4e)">
<path fill="none" stroke-width="0.7" stroke-linecap="butt" stroke-linejoin="miter" stroke="rgb(27.450982%, 50.980395%, 70.588237%)" stroke-opacity="0.2" stroke-miterlimit="2" d="M 90.050781 185 L 100.101562 88.699219 L 110.148438 62.855469 L 120.199219 52.40625 L 130.25 45.03125 L 140.300781 44.867188 L 150.351562 44.941406 L 160.398438 45.4375 L 170.449219 47.351562 L 180.5 48.160156 L 190.550781 49.5 L 200.601562 51.707031 L 210.648438 52.449219 L 220.699219 53.601562 L 230.75 54.671875 L 240.800781 54.851562 L 250.851562 55.753906 L 260.898438 57.761719 L 270.949219 58.269531 L 281 59.035156 "/>
<path fill="none" stroke-width="0.7" stroke-linecap="butt" stroke-linejoin="miter" stroke="rgb(27.450982%, 50.980395%, 70.588237%)" stroke-opacity="0.2" stroke-miterlimit="2" d="M 90.050781 185 L 100.101562 83.261719 L 110.148438 62.273438 L 120.199219 50.257812 L 130.25 46.40625 L 140.300781 44.816406 L 150.351562 46.1875 L 160.398438 48.277344 L 170.449219 48.78125 L 180.5 53.40625 L 190.550781 55.371094 L 200.601562 57.488281 L 210.648438 59.195312 L 220.699219 61.160156 L 230.75 60.636719 L 240.800781 62.726562 L 250.851562 62.460938 L 260.898438 63.101562 L 270.949219 63.625 L 281 65.140625 "/>
</g>
<g clip-path="url(#clip-44-ed4a5f4e)">
<path fill="none" stroke-width="0.7" stroke-linecap="butt" stroke-linejoin="miter" stroke="rgb(27.450982%, 50.980395%, 70.588237%)" stroke-opacity="0.2" stroke-miterlimit="2" d="M 90.050781 185 L 100.101562 83.636719 L 110.148438 58.953125 L 120.199219 44.617188 L 130.25 39.871094 L 140.300781 37.183594 L 150.351562 38.128906 L 160.398438 38.296875 L 170.449219 40.539062 L 180.5 44.378906 L 190.550781 45.628906 L 200.601562 48.300781 L 210.648438 49.992188 L 220.699219 50.847656 L 230.75 52.082031 L 240.800781 51.515625 L 250.851562 53.855469 L 260.898438 54.386719 L 270.949219 55.453125 L 281 56.945312 "/>
</g>
<g clip-path="url(#clip-45-ed4a5f4e)">
<path fill="none" stroke-width="0.7" stroke-linecap="butt" stroke-linejoin="miter" stroke="rgb(27.450982%, 50.980395%, 70.588237%)" stroke-opacity="0.2" stroke-miterlimit="2" d="M 90.050781 185 L 100.101562 103.640625 L 110.148438 79.355469 L 120.199219 63.832031 L 130.25 57.203125 L 140.300781 54 L 150.351562 52.613281 L 160.398438 51.363281 L 170.449219 50.980469 L 180.5 51.246094 L 190.550781 50.972656 L 200.601562 51.882812 L 210.648438 52.765625 L 220.699219 53.605469 L 230.75 54.128906 L 240.800781 54.382812 L 250.851562 54.625 L 260.898438 55.335938 L 270.949219 55.652344 L 281 55.84375 "/>
</g>
<g clip-path="url(#clip-46-ed4a5f4e)">
<path fill="none" stroke-width="0.7" stroke-linecap="butt" stroke-linejoin="miter" stroke="rgb(27.450982%, 50.980395%, 70.588237%)" stroke-opacity="0.2" stroke-miterlimit="2" d="M 90.050781 185 L 100.101562 106.046875 L 110.148438 78.835938 L 120.199219 65.121094 L 130.25 60.378906 L 140.300781 58.167969 L 150.351562 56.269531 L 160.398438 55.246094 L 170.449219 56.699219 L 180.5 57.976562 L 190.550781 58.332031 L 200.601562 59.183594 L 210.648438 59.160156 L 220.699219 59.046875 L 230.75 58.953125 L 240.800781 58.839844 L 250.851562 59.777344 L 260.898438 59.691406 L 270.949219 59.753906 L 281 60.1875 "/>
</g>
<g clip-path="url(#clip-47-ed4a5f4e)">
<path fill="none" stroke-width="0.7" stroke-linecap="butt" stroke-linejoin="miter" stroke="rgb(27.450982%, 50.980395%, 70.588237%)" stroke-opacity="0.2" stroke-miterlimit="2" d="M 90.050781 185 L 100.101562 105.976562 L 110.148438 83.347656 L 120.199219 72.859375 L 130.25 67.5 L 140.300781 63.972656 L 150.351562 61.199219 L 160.398438 59.296875 L 170.449219 57.65625 L 180.5 56.523438 L 190.550781 55.332031 L 200.601562 54.988281 L 210.648438 55.171875 L 220.699219 55.546875 L 230.75 54.328125 L 240.800781 52.851562 L 250.851562 51.492188 L 260.898438 51.8125 L 270.949219 50.542969 L 281 52.105469 "/>
</g>
<g clip-path="url(#clip-48-ed4a5f4e)">
<path fill="none" stroke-width="0.7" stroke-linecap="butt" stroke-linejoin="miter" stroke="rgb(27.450982%, 50.980395%, 70.588237%)" stroke-opacity="0.2" stroke-miterlimit="2" d="M 90.050781 185 L 100.101562 104.789062 L 110.148438 73.160156 L 120.199219 59.964844 L 130.25 51.109375 L 140.300781 48.570312 L 150.351562 48.75 L 160.398438 48.078125 L 170.449219 49.5625 L 180.5 50.394531 L 190.550781 52.414062 L 200.601562 52.734375 L 210.648438 53.40625 L 220.699219 53.574219 L 230.75 54.71875 L 240.800781 56.0625 L 250.851562 55.378906 L 260.898438 55.890625 L 270.949219 55.582031 L 281 55.191406 "/>
</g>
<g clip-path="url(#clip-49-ed4a5f4e)">
<path fill="none" stroke-width="0.7" stroke-linecap="butt" stroke-linejoin="miter" stroke="rgb(27.450982%, 50.980395%, 70.588237%)" stroke-opacity="0.2" stroke-miterlimit="2" d="M 90.050781 185 L 100.101562 108.824219 L 110.148438 79.03125 L 120.199219 63.449219 L 130.25 55.097656 L 140.300781 50.800781 L 150.351562 49.125 L 160.398438 46.679688 L 170.449219 44.871094 L 180.5 44.453125 L 190.550781 43.601562 L 200.601562 42.8125 L 210.648438 43.109375 L 220.699219 42.835938 L 230.75 42.007812 L 240.800781 42.273438 L 250.851562 41.386719 L 260.898438 41.496094 L 270.949219 40.097656 L 281 39.667969 "/>
</g>
<g clip-path="url(#clip-50-ed4a5f4e)">
<path fill="none" stroke-width="0.7" stroke-linecap="butt" stroke-linejoin="miter" stroke="rgb(27.450982%, 50.980395%, 70.588237%)" stroke-opacity="0.2" stroke-miterlimit="2" d="M 90.050781 185 L 100.101562 107.675781 L 110.148438 79.59375 L 120.199219 65.699219 L 130.25 57.648438 L 140.300781 52.757812 L 150.351562 48.234375 L 160.398438 45.292969 L 170.449219 44.917969 L 180.5 43.800781 L 190.550781 43.082031 L 200.601562 42.464844 L 210.648438 42.367188 L 220.699219 43.058594 L 230.75 42.867188 L 240.800781 43.378906 L 250.851562 43.328125 L 260.898438 42.1875 L 270.949219 42.210938 L 281 42.335938 "/>
</g>
<g clip-path="url(#clip-51-ed4a5f4e)">
<path fill="none" stroke-width="0.7" stroke-linecap="butt" stroke-linejoin="miter" stroke="rgb(27.450982%, 50.980395%, 70.588237%)" stroke-opacity="0.2" stroke-miterlimit="2" d="M 90.050781 185 L 100.101562 95.914062 L 110.148438 64.289062 L 120.199219 49.617188 L 130.25 45.109375 L 140.300781 43.417969 L 150.351562 44.015625 L 160.398438 46.070312 L 170.449219 48.214844 L 180.5 50.332031 L 190.550781 51.484375 L 200.601562 51.996094 L 210.648438 53.140625 L 220.699219 54.429688 L 230.75 55.046875 L 240.800781 55.535156 L 250.851562 55.902344 L 260.898438 55.738281 L 270.949219 55.320312 L 281 55.140625 "/>
</g>
<g clip-path="url(#clip-52-ed4a5f4e)">
<path fill="none" stroke-width="0.7" stroke-linecap="butt" stroke-linejoin="miter" stroke="rgb(27.450982%, 50.980395%, 70.588237%)" stroke-opacity="0.2" stroke-miterlimit="2" d="M 90.050781 185 L 100.101562 93.1875 L 110.148438 59.355469 L 120.199219 44.460938 L 130.25 36.539062 L 140.300781 31.929688 L 150.351562 30.402344 L 160.398438 31.054688 L 170.449219 32.074219 L 180.5 33.542969 L 190.550781 36 L 200.601562 37.960938 L 210.648438 38.441406 L 220.699219 39.257812 L 230.75 40.589844 L 240.800781 41.46875 L 250.851562 43.148438 L 260.898438 43.953125 L 270.949219 44.292969 L 281 44.4375 "/>
</g>
<g clip-path="url(#clip-53-ed4a5f4e)">
<path fill="none" stroke-width="0.7" stroke-linecap="butt" stroke-linejoin="miter" stroke="rgb(27.450982%, 50.980395%, 70.588237%)" stroke-opacity="0.2" stroke-miterlimit="2" d="M 90.050781 185 L 100.101562 94.871094 L 110.148438 62.320312 L 120.199219 50.582031 L 130.25 44.671875 L 140.300781 45.546875 L 150.351562 47.484375 L 160.398438 51.804688 L 170.449219 55.976562 L 180.5 58.628906 L 190.550781 60.183594 L 200.601562 60.140625 L 210.648438 61.605469 L 220.699219 61.988281 L 230.75 62.277344 L 240.800781 61.085938 L 250.851562 60.269531 L 260.898438 60.632812 L 270.949219 59.699219 L 281 59.671875 "/>
</g>
<g clip-path="url(#clip-54-ed4a5f4e)">
<path fill="none" stroke-width="0.7" stroke-linecap="butt" stroke-linejoin="miter" stroke="rgb(27.450982%, 50.980395%, 70.588237%)" stroke-opacity="0.2" stroke-miterlimit="2" d="M 90.050781 185 L 100.101562 91.242188 L 110.148438 60.644531 L 120.199219 48.203125 L 130.25 41.363281 L 140.300781 38.285156 L 150.351562 37.644531 L 160.398438 39.738281 L 170.449219 41.898438 L 180.5 44.082031 L 190.550781 45.417969 L 200.601562 47.023438 L 210.648438 47.625 L 220.699219 48.195312 L 230.75 48.753906 L 240.800781 50.21875 L 250.851562 50.96875 L 260.898438 51.078125 L 270.949219 51.703125 L 281 53.050781 "/>
</g>
<g clip-path="url(#clip-55-ed4a5f4e)">
<path fill="none" stroke-width="0.7" stroke-linecap="butt" stroke-linejoin="miter" stroke="rgb(27.450982%, 50.980395%, 70.588237%)" stroke-opacity="0.2" stroke-miterlimit="2" d="M 90.050781 185 L 100.101562 103.304688 L 110.148438 69.945312 L 120.199219 53.722656 L 130.25 45.773438 L 140.300781 42.203125 L 150.351562 41.742188 L 160.398438 41.324219 L 170.449219 43.125 L 180.5 43.5625 L 190.550781 44.691406 L 200.601562 46.027344 L 210.648438 46.96875 L 220.699219 47.730469 L 230.75 48.222656 L 240.800781 48.808594 L 250.851562 49.824219 L 260.898438 49.535156 L 270.949219 49.691406 L 281 49.132812 "/>
</g>
<g clip-path="url(#clip-56-ed4a5f4e)">
<path fill="none" stroke-width="0.7" stroke-linecap="butt" stroke-linejoin="miter" stroke="rgb(27.450982%, 50.980395%, 70.588237%)" stroke-opacity="0.2" stroke-miterlimit="2" d="M 90.050781 185 L 100.101562 92.425781 L 110.148438 61.03125 L 120.199219 47.546875 L 130.25 40.871094 L 140.300781 40.199219 L 150.351562 40.921875 L 160.398438 43.046875 L 170.449219 43.453125 L 180.5 44.992188 L 190.550781 46.265625 L 200.601562 47.039062 L 210.648438 47.023438 L 220.699219 47.554688 L 230.75 48.179688 L 240.800781 48.390625 L 250.851562 47.921875 L 260.898438 47.464844 L 270.949219 47.015625 L 281 46.121094 "/>
</g>
<g clip-path="url(#clip-57-ed4a5f4e)">
<path fill="none" stroke-width="0.7" stroke-linecap="butt" stroke-linejoin="miter" stroke="rgb(27.450982%, 50.980395%, 70.588237%)" stroke-opacity="0.2" stroke-miterlimit="2" d="M 90.050781 185 L 100.101562 96.472656 L 110.148438 76.265625 L 120.199219 66.523438 L 130.25 62.714844 L 140.300781 62.277344 L 150.351562 62.910156 L 160.398438 65.417969 L 170.449219 67.671875 L 180.5 69.371094 L 190.550781 70.191406 L 200.601562 71.054688 L 210.648438 72.230469 L 220.699219 73 L 230.75 72.890625 L 240.800781 75.074219 L 250.851562 74.671875 L 260.898438 75.546875 L 270.949219 74.492188 L 281 74.683594 "/>
</g>
<g clip-path="url(#clip-58-ed4a5f4e)">
<path fill="none" stroke-width="0.7" stroke-linecap="butt" stroke-linejoin="miter" stroke="rgb(27.450982%, 50.980395%, 70.588237%)" stroke-opacity="0.2" stroke-miterlimit="2" d="M 90.050781 185 L 100.101562 102.207031 L 110.148438 79.039062 L 120.199219 69.097656 L 130.25 65.121094 L 140.300781 64.808594 L 150.351562 64.949219 L 160.398438 65.308594 L 170.449219 65.640625 L 180.5 67.363281 L 190.550781 67.675781 L 200.601562 68.695312 L 210.648438 69.300781 L 220.699219 70.460938 L 230.75 71.492188 L 240.800781 70.667969 L 250.851562 69.613281 L 260.898438 70.386719 L 270.949219 70.371094 L 281 70.035156 "/>
</g>
<g clip-path="url(#clip-59-ed4a5f4e)">
<path fill="none" stroke-width="0.7" stroke-linecap="butt" stroke-linejoin="miter" stroke="rgb(27.450982%, 50.980395%, 70.588237%)" stroke-opacity="0.2" stroke-miterlimit="2" d="M 90.050781 185 L 100.101562 104.257812 L 110.148438 84.167969 L 120.199219 71.632812 L 130.25 66.871094 L 140.300781 63.273438 L 150.351562 59.949219 L 160.398438 59.105469 L 170.449219 57.40625 L 180.5 58.117188 L 190.550781 57.597656 L 200.601562 57.644531 L 210.648438 57.65625 L 220.699219 58.03125 L 230.75 58.582031 L 240.800781 58.847656 L 250.851562 59.820312 L 260.898438 59.316406 L 270.949219 58.84375 L 281 58.910156 "/>
<path fill="none" stroke-width="0.7" stroke-linecap="butt" stroke-linejoin="miter" stroke="rgb(27.450982%, 50.980395%, 70.588237%)" stroke-opacity="0.2" stroke-miterlimit="2" d="M 90.050781 185 L 100.101562 103.117188 L 110.148438 76.570312 L 120.199219 63.222656 L 130.25 57.34375 L 140.300781 57.714844 L 150.351562 57.886719 L 160.398438 59.285156 L 170.449219 60.949219 L 180.5 61.972656 L 190.550781 62.09375 L 200.601562 62.421875 L 210.648438 63.917969 L 220.699219 64.777344 L 230.75 65.621094 L 240.800781 65.570312 L 250.851562 64.988281 L 260.898438 66.367188 L 270.949219 66.761719 L 281 66.976562 "/>
</g>
<g clip-path="url(#clip-60-ed4a5f4e)">
<path fill="none" stroke-width="0.7" stroke-linecap="butt" stroke-linejoin="miter" stroke="rgb(27.450982%, 50.980395%, 70.588237%)" stroke-opacity="0.2" stroke-miterlimit="2" d="M 90.050781 185 L 100.101562 101.46875 L 110.148438 80.296875 L 120.199219 67.851562 L 130.25 63.042969 L 140.300781 61.308594 L 150.351562 60.304688 L 160.398438 58.664062 L 170.449219 58.5 L 180.5 60.289062 L 190.550781 59.996094 L 200.601562 58.792969 L 210.648438 59.832031 L 220.699219 59.402344 L 230.75 60.027344 L 240.800781 60.703125 L 250.851562 59.683594 L 260.898438 59.722656 L 270.949219 58.777344 L 281 58.402344 "/>
</g>
<g clip-path="url(#clip-61-ed4a5f4e)">
<path fill="none" stroke-width="0.7" stroke-linecap="butt" stroke-linejoin="miter" stroke="rgb(27.450982%, 50.980395%, 70.588237%)" stroke-opacity="0.2" stroke-miterlimit="2" d="M 90.050781 185 L 100.101562 98.023438 L 110.148438 74.304688 L 120.199219 60.628906 L 130.25 56.597656 L 140.300781 56.128906 L 150.351562 54.21875 L 160.398438 54.945312 L 170.449219 56.425781 L 180.5 58.082031 L 190.550781 58.933594 L 200.601562 58.566406 L 210.648438 60.914062 L 220.699219 62.6875 L 230.75 62.835938 L 240.800781 63.285156 L 250.851562 63.769531 L 260.898438 63.433594 L 270.949219 63.28125 L 281 63.492188 "/>
</g>
<g clip-path="url(#clip-62-ed4a5f4e)">
<path fill="none" stroke-width="0.7" stroke-linecap="butt" stroke-linejoin="miter" stroke="rgb(27.450982%, 50.980395%, 70.588237%)" stroke-opacity="0.2" stroke-miterlimit="2" d="M 90.050781 185 L 100.101562 96.375 L 110.148438 72.222656 L 120.199219 52.375 L 130.25 41.230469 L 140.300781 31.527344 L 150.351562 26.472656 L 160.398438 23.34375 L 170.449219 21.527344 L 180.5 20.9375 L 190.550781 20.015625 L 200.601562 20.078125 L 210.648438 20.332031 L 220.699219 20.640625 L 230.75 20.460938 L 240.800781 21.738281 L 250.851562 21.792969 L 260.898438 23.078125 L 270.949219 23.019531 L 281 22.964844 "/>
</g>
<g clip-path="url(#clip-63-ed4a5f4e)">
<path fill="none" stroke-width="0.7" stroke-linecap="butt" stroke-linejoin="miter" stroke="rgb(27.450982%, 50.980395%, 70.588237%)" stroke-opacity="0.2" stroke-miterlimit="2" d="M 90.050781 185 L 100.101562 96.019531 L 110.148438 65.722656 L 120.199219 43.972656 L 130.25 32.539062 L 140.300781 27.589844 L 150.351562 26.039062 L 160.398438 25.097656 L 170.449219 23.980469 L 180.5 23.816406 L 190.550781 23.964844 L 200.601562 24.8125 L 210.648438 25.054688 L 220.699219 25.308594 L 230.75 26.515625 L 240.800781 28.246094 L 250.851562 29.160156 L 260.898438 29.605469 L 270.949219 30.164062 L 281 30.515625 "/>
</g>
<g clip-path="url(#clip-64-ed4a5f4e)">
<path fill="none" stroke-width="0.7" stroke-linecap="butt" stroke-linejoin="miter" stroke="rgb(27.450982%, 50.980395%, 70.588237%)" stroke-opacity="0.2" stroke-miterlimit="2" d="M 90.050781 185 L 100.101562 90.9375 L 110.148438 67.289062 L 120.199219 45.878906 L 130.25 35.558594 L 140.300781 28.230469 L 150.351562 24.765625 L 160.398438 22.433594 L 170.449219 21.078125 L 180.5 21.242188 L 190.550781 20.617188 L 200.601562 22.152344 L 210.648438 22.980469 L 220.699219 24.640625 L 230.75 25.257812 L 240.800781 24.742188 L 250.851562 26.105469 L 260.898438 25.804688 L 270.949219 25.839844 L 281 25.949219 "/>
</g>
<g clip-path="url(#clip-65-ed4a5f4e)">
<path fill="none" stroke-width="0.7" stroke-linecap="butt" stroke-linejoin="miter" stroke="rgb(27.450982%, 50.980395%, 70.588237%)" stroke-opacity="0.2" stroke-miterlimit="2" d="M 90.050781 185 L 100.101562 93.6875 L 110.148438 63.511719 L 120.199219 43.003906 L 130.25 32.472656 L 140.300781 27.164062 L 150.351562 24.578125 L 160.398438 23.5 L 170.449219 23.671875 L 180.5 25.089844 L 190.550781 25.980469 L 200.601562 25.714844 L 210.648438 27.070312 L 220.699219 28.753906 L 230.75 29.691406 L 240.800781 29.464844 L 250.851562 31.230469 L 260.898438 31.640625 L 270.949219 32.03125 L 281 30.609375 "/>
</g>
<g clip-path="url(#clip-66-ed4a5f4e)">
<path fill="none" stroke-width="0.7" stroke-linecap="butt" stroke-linejoin="miter" stroke="rgb(27.450982%, 50.980395%, 70.588237%)" stroke-opacity="0.2" stroke-miterlimit="2" d="M 90.050781 185 L 100.101562 98.664062 L 110.148438 73.773438 L 120.199219 52.035156 L 130.25 40.332031 L 140.300781 30.753906 L 150.351562 26.183594 L 160.398438 21.75 L 170.449219 19.867188 L 180.5 18.496094 L 190.550781 18.027344 L 200.601562 18.359375 L 210.648438 18.074219 L 220.699219 18.335938 L 230.75 18.578125 L 240.800781 18.789062 L 250.851562 19.597656 L 260.898438 19.773438 L 270.949219 19.882812 L 281 19.8125 "/>
<path fill="none" stroke-width="0.7" stroke-linecap="butt" stroke-linejoin="miter" stroke="rgb(27.450982%, 50.980395%, 70.588237%)" stroke-opacity="0.2" stroke-miterlimit="2" d="M 90.050781 185 L 100.101562 90.472656 L 110.148438 63.875 L 120.199219 45.242188 L 130.25 34.871094 L 140.300781 26.597656 L 150.351562 20.539062 L 160.398438 19.464844 L 170.449219 18.40625 L 180.5 19.75 L 190.550781 20.003906 L 200.601562 20.347656 L 210.648438 21.8125 L 220.699219 23.53125 L 230.75 24.898438 L 240.800781 26.058594 L 250.851562 26.171875 L 260.898438 25.554688 L 270.949219 25.628906 L 281 25.3125 "/>
</g>
<g clip-path="url(#clip-67-ed4a5f4e)">
<path fill-rule="nonzero" fill="rgb(100%, 64.705884%, 0%)" fill-opacity="0.2" d="M 90.050781 185 L 100.101562 107.738281 L 110.148438 81.3125 L 120.199219 67.960938 L 130.25 60.472656 L 140.300781 56.335938 L 150.351562 54.253906 L 160.398438 53.71875 L 170.449219 52.574219 L 180.5 51.957031 L 190.550781 51.507812 L 200.601562 50.265625 L 210.648438 49.691406 L 220.699219 49.90625 L 230.75 50.527344 L 240.800781 50.917969 L 250.851562 51.386719 L 260.898438 51.703125 L 270.949219 52.074219 L 281 52.152344 L 291.050781 51.898438 L 301.101562 51.851562 L 311.148438 51.882812 L 321.199219 51.910156 L 331.25 52.105469 L 341.300781 52.101562 L 351.351562 51.972656 L 361.398438 52.199219 L 371.449219 52.476562 L 381.5 52.542969 L 391.550781 52.679688 L 401.601562 52.457031 L 411.648438 52.566406 L 421.699219 52.9375 L 431.75 53.089844 L 441.800781 53.171875 L 451.851562 53.132812 L 461.898438 52.925781 L 471.949219 53.160156 L 482 53.230469 L 492.050781 53.042969 L 502.101562 52.867188 L 512.148438 52.964844 L 522.199219 52.972656 L 532.25 52.828125 L 542.300781 52.648438 L 552.351562 52.914062 L 562.398438 52.941406 L 572.449219 52.964844 L 582.5 52.773438 L 582.5 69.269531 L 572.449219 69.292969 L 562.398438 69.207031 L 552.351562 69.289062 L 542.300781 69.253906 L 532.25 69.058594 L 522.199219 68.988281 L 512.148438 68.996094 L 502.101562 69.097656 L 492.050781 69.148438 L 482 69.195312 L 471.949219 69.230469 L 461.898438 69.175781 L 451.851562 69.238281 L 441.800781 69.523438 L 431.75 69.261719 L 421.699219 69.359375 L 411.648438 69.199219 L 401.601562 69.058594 L 391.550781 69.03125 L 381.5 69.0625 L 371.449219 69.152344 L 361.398438 69.066406 L 351.351562 69.097656 L 341.300781 68.871094 L 331.25 68.957031 L 321.199219 68.609375 L 311.148438 68.570312 L 301.101562 68.230469 L 291.050781 68.125 L 281 68.105469 L 270.949219 67.847656 L 260.898438 67.6875 L 250.851562 67.378906 L 240.800781 66.9375 L 230.75 66.984375 L 220.699219 66.25 L 210.648438 65.613281 L 200.601562 65.027344 L 190.550781 64.402344 L 180.5 64.546875 L 170.449219 64.703125 L 160.398438 65.457031 L 150.351562 65.996094 L 140.300781 66.851562 L 130.25 71.195312 L 120.199219 77.691406 L 110.148438 89.601562 L 100.101562 114.347656 Z M 90.050781 185 "/>
</g>
<g clip-path="url(#clip-68-ed4a5f4e)">
<path fill-rule="nonzero" fill="rgb(27.450982%, 50.980395%, 70.588237%)" fill-opacity="0.2" d="M 90.050781 185 L 100.101562 92.128906 L 110.148438 63.449219 L 120.199219 48.113281 L 130.25 41.328125 L 140.300781 39.664062 L 150.351562 40.222656 L 160.398438 40.917969 L 170.449219 42.113281 L 180.5 43.738281 L 190.550781 44.074219 L 200.601562 44.976562 L 210.648438 44.894531 L 220.699219 43.960938 L 230.75 43.449219 L 240.800781 43.570312 L 250.851562 43.28125 L 260.898438 43.765625 L 270.949219 43.773438 L 281 43.910156 L 291.050781 43.972656 L 301.101562 44.371094 L 311.148438 44.335938 L 321.199219 43.917969 L 331.25 44.179688 L 341.300781 45.214844 L 351.351562 44.714844 L 361.398438 45.238281 L 371.449219 46.167969 L 381.5 46.246094 L 391.550781 46.273438 L 401.601562 47.527344 L 411.648438 48.328125 L 421.699219 49.398438 L 431.75 49.613281 L 441.800781 49.863281 L 451.851562 49.636719 L 461.898438 49.25 L 471.949219 48.933594 L 482 48.460938 L 492.050781 49.0625 L 502.101562 49.207031 L 512.148438 49.183594 L 522.199219 49.09375 L 532.25 48.96875 L 542.300781 49.453125 L 552.351562 48.816406 L 562.398438 48.6875 L 572.449219 48.734375 L 582.5 48.214844 L 582.5 67.070312 L 572.449219 66.753906 L 562.398438 66.832031 L 552.351562 66.566406 L 542.300781 66.667969 L 532.25 65.980469 L 522.199219 66.273438 L 512.148438 66.027344 L 502.101562 66.027344 L 492.050781 65.789062 L 482 65.78125 L 471.949219 65.136719 L 461.898438 65.394531 L 451.851562 65.109375 L 441.800781 64.808594 L 431.75 64.640625 L 421.699219 64.71875 L 411.648438 65.339844 L 401.601562 64.769531 L 391.550781 64.429688 L 381.5 64.253906 L 371.449219 63.820312 L 361.398438 63.832031 L 351.351562 63.320312 L 341.300781 62.71875 L 331.25 62.664062 L 321.199219 62.410156 L 311.148438 61.421875 L 301.101562 61.128906 L 291.050781 60.914062 L 281 60.351562 L 270.949219 59.710938 L 260.898438 59.953125 L 250.851562 59.933594 L 240.800781 60.796875 L 230.75 60.132812 L 220.699219 59.136719 L 210.648438 59.167969 L 200.601562 57.675781 L 190.550781 57.628906 L 180.5 56.886719 L 170.449219 56.089844 L 160.398438 52.785156 L 150.351562 53.015625 L 140.300781 54.960938 L 130.25 57.238281 L 120.199219 63.542969 L 110.148438 77.6875 L 100.101562 103.3125 Z M 90.050781 185 "/>
</g>
<g clip-path="url(#clip-69-ed4a5f4e)">
<path fill="none" stroke-width="2.5" stroke-linecap="butt" stroke-linejoin="miter" stroke="rgb(100%, 64.705884%, 0%)" stroke-opacity="1" stroke-miterlimit="2" d="M 90.050781 185 L 100.101562 111.429688 L 110.148438 84.589844 L 120.199219 71.585938 L 130.25 65.71875 L 140.300781 61.742188 L 150.351562 60.992188 L 160.398438 60.226562 L 170.449219 59.648438 L 180.5 58.84375 L 190.550781 58.6875 L 200.601562 59.457031 L 210.648438 60.117188 L 220.699219 60.507812 L 230.75 60.964844 L 240.800781 61.460938 L 250.851562 61.847656 L 260.898438 62.039062 L 270.949219 62.25 L 281 62.351562 "/>
</g>
<g clip-path="url(#clip-70-ed4a5f4e)">
<path fill="none" stroke-width="2.5" stroke-linecap="butt" stroke-linejoin="miter" stroke="rgb(27.450982%, 50.980395%, 70.588237%)" stroke-opacity="1" stroke-miterlimit="2" d="M 90.050781 185 L 100.101562 96.5625 L 110.148438 70.347656 L 120.199219 54.214844 L 130.25 48.726562 L 140.300781 46.515625 L 150.351562 47.414062 L 160.398438 46.398438 L 170.449219 47.78125 L 180.5 48.277344 L 190.550781 49.46875 L 200.601562 51.234375 L 210.648438 52.539062 L 220.699219 53.195312 L 230.75 53.984375 L 240.800781 54.40625 L 250.851562 55.042969 L 260.898438 55.535156 L 270.949219 55.519531 L 281 55.695312 "/>
</g>
<path fill="none" stroke-width="1" stroke-linecap="butt" stroke-linejoin="miter" stroke="rgb(0%, 0%, 0%)" stroke-opacity="1" stroke-miterlimit="1.154701" d="M 80 185.5 L 80 190.5 "/>
<path fill="none" stroke-width="1" stroke-linecap="butt" stroke-linejoin="miter" stroke="rgb(0%, 0%, 0%)" stroke-opacity="1" stroke-miterlimit="1.154701" d="M 130.25 185.5 L 130.25 190.5 "/>
<path fill="none" stroke-width="1" stroke-linecap="butt" stroke-linejoin="miter" stroke="rgb(0%, 0%, 0%)" stroke-opacity="1" stroke-miterlimit="1.154701" d="M 180.5 185.5 L 180.5 190.5 "/>
<path fill="none" stroke-width="1" stroke-linecap="butt" stroke-linejoin="miter" stroke="rgb(0%, 0%, 0%)" stroke-opacity="1" stroke-miterlimit="1.154701" d="M 230.75 185.5 L 230.75 190.5 "/>
<path fill="none" stroke-width="1" stroke-linecap="butt" stroke-linejoin="miter" stroke="rgb(0%, 0%, 0%)" stroke-opacity="1" stroke-miterlimit="1.154701" d="M 281 185.5 L 281 190.5 "/>
<path fill="none" stroke-width="1" stroke-linecap="butt" stroke-linejoin="miter" stroke="rgb(0%, 0%, 0%)" stroke-opacity="1" stroke-miterlimit="1.154701" d="M 79.5 185 L 74.5 185 "/>
<path fill="none" stroke-width="1" stroke-linecap="butt" stroke-linejoin="miter" stroke="rgb(0%, 0%, 0%)" stroke-opacity="1" stroke-miterlimit="1.154701" d="M 79.5 100.5 L 74.5 100.5 "/>
<path fill="none" stroke-width="1" stroke-linecap="butt" stroke-linejoin="miter" stroke="rgb(0%, 0%, 0%)" stroke-opacity="1" stroke-miterlimit="1.154701" d="M 79.5 16 L 74.5 16 "/>
<path fill="none" stroke-width="2.5" stroke-linecap="butt" stroke-linejoin="miter" stroke="rgb(100%, 64.705884%, 0%)" stroke-opacity="1" stroke-miterlimit="2" d="M 304.984375 88.515625 L 324.984375 88.515625 "/>
<path fill="none" stroke-width="2.5" stroke-linecap="butt" stroke-linejoin="miter" stroke="rgb(27.450982%, 50.980395%, 70.588237%)" stroke-opacity="1" stroke-miterlimit="2" d="M 304.984375 112.484375 L 324.984375 112.484375 "/>
<g fill="rgb(0%, 0%, 0%)" fill-opacity="1">
<use xlink:href="#glyph-1-4-ed4a5f4e" x="329.98497" y="95.075993"/>
</g>
<g fill="rgb(0%, 0%, 0%)" fill-opacity="1">
<use xlink:href="#glyph-1-5-ed4a5f4e" x="342.98097" y="95.075993"/>
</g>
<g fill="rgb(0%, 0%, 0%)" fill-opacity="1">
<use xlink:href="#glyph-1-6-ed4a5f4e" x="352.988969" y="95.075993"/>
</g>
<g fill="rgb(0%, 0%, 0%)" fill-opacity="1">
<use xlink:href="#glyph-1-6-ed4a5f4e" x="356.98497" y="95.075993"/>
</g>
<g fill="rgb(0%, 0%, 0%)" fill-opacity="1">
<use xlink:href="#glyph-1-7-ed4a5f4e" x="329.984999" y="119.045995"/>
</g>
<g fill="rgb(0%, 0%, 0%)" fill-opacity="1">
<use xlink:href="#glyph-1-8-ed4a5f4e" x="343.988999" y="119.045995"/>
</g>
<g fill="rgb(0%, 0%, 0%)" fill-opacity="1">
<use xlink:href="#glyph-1-9-ed4a5f4e" x="353.996998" y="119.045995"/>
</g>
<g fill="rgb(0%, 0%, 0%)" fill-opacity="1">
<use xlink:href="#glyph-1-10-ed4a5f4e" x="362.997" y="119.045995"/>
</g>
<g fill="rgb(0%, 0%, 0%)" fill-opacity="1">
<use xlink:href="#glyph-1-11-ed4a5f4e" x="373.005" y="119.045995"/>
</g>
<g fill="rgb(0%, 0%, 0%)" fill-opacity="1">
<use xlink:href="#glyph-1-12-ed4a5f4e" x="378.998999" y="119.045995"/>
</g>
<g fill="rgb(0%, 0%, 0%)" fill-opacity="1">
<use xlink:href="#glyph-1-10-ed4a5f4e" x="387.998999" y="119.045995"/>
</g>
<g fill="rgb(0%, 0%, 0%)" fill-opacity="1">
<use xlink:href="#glyph-1-13-ed4a5f4e" x="398.007002" y="119.045995"/>
</g>
<path fill="none" stroke-width="1" stroke-linecap="butt" stroke-linejoin="miter" stroke="rgb(0%, 0%, 0%)" stroke-opacity="1" stroke-miterlimit="1.154701" d="M 79.5 185 L 281.5 185 "/>
<path fill="none" stroke-width="1" stroke-linecap="butt" stroke-linejoin="miter" stroke="rgb(0%, 0%, 0%)" stroke-opacity="1" stroke-miterlimit="1.154701" d="M 80 185.5 L 80 15.5 "/>
</svg>
